<svg t="1741661978151" class="icon" viewBox="0 0 1066 1024" version="1.1" xmlns="http://www.w3.org/2000/svg" p-id="5067">
  <path
    d="M592.426667 192c27.861333 0 49.962667 22.485333 52.650666 50.517333l0.256 5.674667v136.874667a21.333333 21.333333 0 0 1-42.325333 3.84l-0.341333-3.84V248.192c0-6.826667-3.754667-11.861333-8.064-13.226667L592.426667 234.666667H244.906667c-4.437333 0-8.789333 4.138667-9.941334 10.24l-0.298666 3.285333v452.949333c0 6.826667 3.754667 11.861333 8.064 13.226667l2.176 0.298667H566.613333a21.333333 21.333333 0 0 1 3.84 42.325333l-3.84 0.341333H244.906667c-27.861333 0-49.962667-22.485333-52.650667-50.517333L192 701.141333V248.192C192 219.52 212.394667 195.2 239.445333 192.298667L244.906667 192h347.52z"
    fill="currentColor" p-id="5068"></path>
  <path
    d="M693.333333 437.333333a42.666667 42.666667 0 0 1 42.666667 42.666667v106.666667h30.293333a21.333333 21.333333 0 0 1 10.325334 2.688l2.986666 2.005333a21.333333 21.333333 0 0 1 5.461334 26.752l-2.133334 3.2-104.96 131.2a21.333333 21.333333 0 0 1-30.634666 2.773333l-2.645334-2.773333-104.96-131.2a21.333333 21.333333 0 0 1 12.8-34.304l3.84-0.341333h30.293334v-106.666667a42.666667 42.666667 0 0 1 42.666666-42.666667h64z m0 192v-149.333333h-64v149.333333l-28.672-0.042666 60.586667 75.861333 60.8-75.861333-28.714667 0.042666zM549.333333 304a21.333333 21.333333 0 0 1 3.84 42.325333l-3.84 0.341334H288a21.333333 21.333333 0 0 1-3.84-42.325334l3.84-0.341333h261.333333zM506.666667 416a21.333333 21.333333 0 0 1 3.84 42.325333l-3.84 0.341334H288a21.333333 21.333333 0 0 1-3.84-42.325334l3.84-0.341333h218.666667zM469.333333 528a21.333333 21.333333 0 0 1 3.84 42.325333L469.333333 570.666667H288a21.333333 21.333333 0 0 1-3.84-42.325334l3.84-0.341333H469.333333z"
    fill="currentColor" p-id="5069"></path>
</svg>
