<svg t="1736822362880" class="icon" viewBox="0 0 1024 1024" version="1.1" xmlns="http://www.w3.org/2000/svg"
     p-id="48969">
  <path
    d="M903.42 199.77c0-74.75-60.8-135.55-135.55-135.55H256.13c-74.75 0-135.55 60.8-135.55 135.55v173.52c0 35.27 13.55 67.44 35.71 91.58-22.16 24.14-35.71 56.3-35.71 91.58v173.52c0 55.08 33.03 102.59 80.32 123.78v60.86c0 24.95 20.23 45.18 45.18 45.18s45.18-20.23 45.18-45.18v-49.09h441.48v49.09c0 24.95 20.23 45.18 45.18 45.18s45.18-20.23 45.18-45.18v-60.86c47.29-21.18 80.32-68.69 80.32-123.78V556.44c0-35.27-13.55-67.44-35.71-91.58 22.16-24.14 35.71-56.3 35.71-91.58V199.77z m-692.48 0c0-24.91 20.26-45.18 45.18-45.18h511.74c24.92 0 45.18 20.27 45.18 45.18v173.52c0 24.91-20.26 45.18-45.18 45.18H256.13c-24.92 0-45.18-20.27-45.18-45.18V199.77z m602.12 530.19c0 24.91-20.26 45.18-45.18 45.18H256.13c-24.92 0-45.18-20.27-45.18-45.18V556.44c0-24.91 20.26-45.18 45.18-45.18h511.74c24.92 0 45.18 20.27 45.18 45.18v173.52z"
    fill="currentColor" p-id="48970"></path>
  <path
    d="M458.65 327.97h92.52c24.95 0 45.18-20.23 45.18-45.18s-20.23-45.18-45.18-45.18h-92.52c-24.95 0-45.18 20.23-45.18 45.18s20.23 45.18 45.18 45.18zM551.17 598.01h-92.52c-24.95 0-45.18 20.23-45.18 45.18s20.23 45.18 45.18 45.18h92.52c24.95 0 45.18-20.23 45.18-45.18s-20.23-45.18-45.18-45.18z"
    fill="currentColor" p-id="48971"></path>
</svg>
