<svg t="1736756398480" class="icon" viewBox="0 0 1024 1024" version="1.1" xmlns="http://www.w3.org/2000/svg"
     p-id="10749">
  <path
    d="M64 0h896c35.346 0 64 28.654 64 64v896c0 35.346-28.654 64-64 64H64c-35.346 0-64-28.654-64-64V64C0 28.654 28.654 0 64 0z m0 64v896h896V64H64z m512 768V543.175c-75.678-35.95-128-113.087-128-202.443 0-97.939 62.854-181.197 150.425-211.637 0.232-0.08 0.45-0.016 0.656 0.164A32.015 32.015 0 0 1 608 128c17.673 0 32 14.327 32 32 0 0.289-0.004 0.577-0.011 0.864H640v45.868c0 17.673 14.327 32 32 32 17.673 0 32-14.327 32-32v-45.558l0.021-0.001c-0.014-0.39-0.021-0.78-0.021-1.173 0-17.673 14.327-32 32-32 3.547 0 6.96 0.577 10.148 1.643 0.293-0.13 0.637-0.124 1.033 0.017C833.913 160.555 896 243.393 896 340.732c0 89.356-52.322 166.493-128 202.443V832c0 35.346-28.654 64-64 64h-64c-35.346 0-64-28.654-64-64z m64 0h64V494l14.13-3.237C784.04 470.98 832 413.083 832 340.732c0-52.082-25.052-98.848-64.174-128.177-3.01 50.308-44.762 90.177-95.826 90.177-51.064 0-92.816-39.87-95.826-90.177C537.052 241.885 512 288.65 512 340.732c0 42.302 16.417 78.77 43.227 107.38 19.044 20.323 43.332 35.672 70.705 43.888L640 494v338zM160 192h128c17.673 0 32 14.327 32 32 0 17.673-14.327 32-32 32H160c-17.673 0-32-14.327-32-32 0-17.673 14.327-32 32-32z m0 192h192c17.673 0 32 14.327 32 32 0 17.673-14.327 32-32 32H160c-17.673 0-32-14.327-32-32 0-17.673 14.327-32 32-32z m0 192h256c17.673 0 32 14.327 32 32 0 17.673-14.327 32-32 32H160c-17.673 0-32-14.327-32-32 0-17.673 14.327-32 32-32z m0 192h256c17.673 0 32 14.327 32 32 0 17.673-14.327 32-32 32H160c-17.673 0-32-14.327-32-32 0-17.673 14.327-32 32-32z"
    fill="currentColor" p-id="10750"></path>
</svg>
