<svg t="1736217750921" class="icon" viewBox="0 0 1024 1024" version="1.1" xmlns="http://www.w3.org/2000/svg">
  <path
    d="M960 64c35.3 0 64 28.7 64 64v128h-64V128H448v64h-64v-64c0-35.3 28.7-64 64-64h512zM320 320c-70.7 0-128 57.3-128 128s57.3 128 128 128 128-57.3 128-128-57.3-128-128-128z m489.4 9.4c12.5 12.5 12.5 32.8 0 45.3L736 448h256c17.7 0 32 14.3 32 32s-14.3 32-32 32H736l73.4 73.4c12.5 12.5 12.5 32.8 0 45.3s-32.8 12.5-45.3 0L658.7 525.3c-25-25-25-65.5 0-90.5l105.4-105.4c12.5-12.5 32.8-12.5 45.3 0zM320 256c106 0 192 86 192 192s-86 192-192 192-192-86-192-192 86-192 192-192z m64 448H256c-106 0-192 86-192 192h512c0-106-86-192-192-192z m640 0v128c0 35.3-28.7 64-64 64H704v-64h256V704h64z m-640-64c141.4 0 256 114.6 256 256v64H0v-64c0-141.4 114.6-256 256-256h128z"
    fill="currentColor"></path>
</svg>
