<svg t="1736756284431" class="icon" viewBox="0 0 1024 1024" version="1.1" xmlns="http://www.w3.org/2000/svg" p-id="9494">
  <path
    d="M565.76 473.6c102.4 0 186.88-84.48 186.88-186.88S668.16 102.4 565.76 102.4c-40.96 0-81.92 12.8-115.2 38.4-7.68 7.68-15.36 12.8-20.48 20.48-10.24 10.24-17.92 23.04-25.6 33.28-15.36 28.16-25.6 58.88-25.6 92.16 0 104.96 84.48 186.88 186.88 186.88zM435.2 212.48c5.12-10.24 12.8-20.48 20.48-28.16l15.36-15.36c25.6-20.48 58.88-33.28 92.16-33.28 81.92 0 151.04 66.56 151.04 151.04 0 81.92-66.56 151.04-151.04 151.04-81.92 0-151.04-66.56-151.04-151.04 2.56-25.6 7.68-51.2 23.04-74.24z"
    fill="currentColor" p-id="9495"></path>
  <path
    d="M581.12 348.16c-7.68 5.12-15.36 5.12-23.04 5.12-12.8 0-23.04-12.8-23.04-30.72 0-10.24-7.68-17.92-17.92-17.92-10.24 0-17.92 7.68-17.92 17.92 0 30.72 17.92 56.32 43.52 64 0 10.24 7.68 15.36 17.92 15.36 10.24 0 17.92-7.68 17.92-17.92 25.6-7.68 46.08-25.6 46.08-58.88 0-38.4-40.96-61.44-61.44-61.44 0 0-25.6-2.56-25.6-17.92 0-25.6 25.6-25.6 25.6-25.6 5.12 0 10.24 2.56 15.36 7.68 2.56 2.56 2.56 2.56 2.56 12.8s7.68 17.92 17.92 17.92c10.24 0 17.92-7.68 17.92-17.92 0-10.24 0-23.04-12.8-35.84-7.68-7.68-17.92-12.8-25.6-15.36 0-10.24-7.68-15.36-17.92-15.36-10.24 0-17.92 7.68-17.92 17.92-17.92 7.68-40.96 23.04-40.96 56.32 0 40.96 40.96 53.76 61.44 53.76 5.12 0 25.6 10.24 25.6 25.6 2.56 10.24 0 15.36-7.68 20.48zM468.48 627.2c-10.24 2.56-15.36 12.8-12.8 20.48 2.56 7.68 10.24 12.8 17.92 12.8h5.12c10.24-2.56 15.36-12.8 12.8-20.48-5.12-10.24-12.8-15.36-23.04-12.8zM192 657.92c-25.6 0-48.64 20.48-48.64 48.64 0 25.6 20.48 48.64 48.64 48.64s48.64-20.48 48.64-48.64c-2.56-28.16-23.04-48.64-48.64-48.64z m0 58.88c-7.68 0-12.8-5.12-12.8-12.8s5.12-12.8 12.8-12.8 12.8 5.12 12.8 12.8c-2.56 7.68-7.68 12.8-12.8 12.8zM189.44 811.52c-10.24 2.56-15.36 12.8-12.8 20.48 2.56 7.68 10.24 12.8 17.92 12.8h5.12c5.12 0 12.8-10.24 10.24-20.48-2.56-7.68-12.8-15.36-20.48-12.8z"
    fill="currentColor" p-id="9496"></path>
  <path
    d="M944.64 476.16c-7.68-28.16-35.84-48.64-66.56-46.08H870.4c-17.92 0-35.84 7.68-48.64 20.48l-99.84 97.28c-2.56-2.56-5.12-7.68-7.68-10.24-12.8-12.8-30.72-20.48-51.2-20.48h-140.8c-25.6 0-51.2-2.56-76.8-10.24-64-17.92-122.88-5.12-174.08 35.84-20.48 17.92-35.84 35.84-46.08 51.2-7.68-5.12-20.48-10.24-35.84-10.24-17.92 0-33.28 7.68-43.52 20.48l-89.6 94.72c-7.68 7.68-7.68 17.92 0 25.6L128 793.6c7.68 7.68 17.92 7.68 25.6 0 7.68-7.68 7.68-17.92 0-25.6l-61.44-58.88 79.36-81.92c5.12-5.12 12.8-7.68 20.48-7.68 7.68 0 15.36 2.56 20.48 7.68l140.8 135.68c5.12 5.12 7.68 12.8 7.68 20.48 0 7.68-2.56 15.36-7.68 20.48l-76.8 79.36-20.48-17.92c-7.68-7.68-17.92-7.68-25.6 0-7.68 7.68-7.68 17.92 0 25.6l33.28 30.72c2.56 2.56 7.68 5.12 12.8 5.12s10.24-2.56 12.8-5.12l89.6-92.16c12.8-12.8 17.92-28.16 17.92-43.52 0-7.68-2.56-15.36-5.12-23.04l30.72-2.56c15.36-2.56 28.16-2.56 43.52-2.56H688.64l20.48-2.56c20.48-2.56 40.96-7.68 56.32-20.48 7.68-5.12 15.36-12.8 23.04-20.48l143.36-168.96c15.36-20.48 20.48-46.08 12.8-69.12z m-40.96 43.52l-143.36 168.96-15.36 15.36c-12.8 7.68-25.6 12.8-40.96 15.36l-20.48 2.56H463.36c-15.36 0-33.28 0-48.64 2.56l-51.2 5.12-112.64-107.52c7.68-10.24 20.48-30.72 40.96-46.08 43.52-33.28 89.6-43.52 143.36-30.72 28.16 7.68 56.32 10.24 84.48 10.24H665.6c10.24 0 17.92 2.56 25.6 10.24 5.12 5.12 7.68 10.24 7.68 17.92v5.12c0 7.68-2.56 15.36-7.68 23.04-7.68 7.68-15.36 12.8-25.6 12.8h-120.32c-10.24 0-17.92 7.68-17.92 17.92 0 10.24 7.68 17.92 17.92 17.92H665.6c20.48 0 40.96-10.24 53.76-25.6 10.24-12.8 15.36-28.16 15.36-43.52l112.64-110.08c7.68-7.68 15.36-10.24 25.6-12.8h7.68c15.36 0 28.16 7.68 30.72 23.04 2.56 7.68 0 17.92-7.68 28.16z"
    fill="currentColor" p-id="9497"></path>
</svg>
