<svg t="1740706113050" class="icon" viewBox="0 0 1024 1024" version="1.1" xmlns="http://www.w3.org/2000/svg" p-id="6192">
  <path
    d="M841.54911 198.138686L841.54911 198.138686c-82.017992-81.902358-195.697077-133.370567-321.340659-133.370567-124.646881 0-237.320057 50.572816-319.779094 131.579781l-1.453095 1.789763c-82.686211 81.901335-133.597741 195.799408-133.597741 321.788867 0 125.535111 50.910507 239.439324 133.597741 320.665277l0 0c82.46006 82.797751 195.689914 133.598764 321.232189 133.598764 124.639718 0 237.422388-50.125631 319.771931-130.912585l1.568728-2.686179c82.350566-81.225953 133.032876-195.131189 133.032876-320.665277C974.581985 393.939117 923.898653 280.040021 841.54911 198.138686L841.54911 198.138686zM754.386958 214.250642L754.386958 214.250642c13.19758 10.066263 26.067702 21.48329 37.930891 33.339316 11.966543 11.864212 22.597671 24.615631 33.000602 37.821397l-33.000602 33.338293c-2.237971 2.237971-5.370311 3.133364-8.621355 3.133364-3.242857 0-6.265704-0.895393-9.17087-3.133364l-53.148477-53.477982c-2.456958-2.465145-3.471055-5.818519-3.471055-9.178033 0-2.686179 1.013073-6.485715 3.471055-8.723685L754.386958 214.250642 754.386958 214.250642zM469.854623 138.166803L469.854623 138.166803c16.33913-2.237971 33.45495-3.360538 50.352805-3.360538 16.888645 0 33.786501 1.122567 50.455135 3.360538l0 46.545082c0 3.580548-1.452071 6.485715-3.799536 8.950859l0 0.220011c-2.238994 2.01796-5.371334 3.360538-8.841366 3.360538l-75.526137 0c-3.462868 0-6.933923-1.342578-8.950859-3.360538l0-0.220011c-1.90028-2.465145-3.690042-5.370311-3.690042-8.950859L469.854623 138.166803 469.854623 138.166803zM247.869832 247.588935L247.869832 247.588935l1.790786-1.342578c11.417027-11.407817 23.609721-22.37766 36.69883-31.995715l32.561603 33.119305 0 0c2.686179 2.237971 3.690042 6.037507 3.690042 8.723685 0 3.360538-1.004887 6.712889-3.690042 9.178033l-53.148477 53.477982c-2.237971 2.237971-5.708002 3.133364-8.730848 3.133364-3.690042 0-6.932899-0.895393-9.17087-3.133364l-33.008788-33.338293C225.043964 272.204565 236.233817 259.453147 247.869832 247.588935L247.869832 247.588935zM135.423831 519.927553L135.423831 519.927553c0-17.454534 1.452071-34.241872 3.462868-50.801013l46.663786 0 0 0.228197c3.242857 0 6.484691 1.11438 8.722662 3.799536 2.237971 1.790786 3.690042 5.598508 3.690042 8.730848l0 75.636654c0 3.133364-1.452071 6.265704-3.690042 8.503675-2.237971 2.456958-5.479805 3.800559-8.722662 3.800559L138.886699 569.82601C136.876925 553.494043 135.423831 536.25952 135.423831 519.927553L135.423831 519.927553zM286.358425 825.376267L286.358425 825.376267c-13.873985-10.739599-26.294876-21.701255-38.488593-33.565467-11.636015-11.856026-22.824845-24.836665-33.008788-38.042431l33.008788-32.891108 0 0c2.237971-2.465145 5.480828-3.809769 9.17087-3.809769 3.022847 0 6.492878 1.343601 8.730848 3.809769l53.148477 53.029774c2.686179 2.686179 4.13825 6.046716 4.13825 9.179057l-0.448208 0c0 3.353374-1.004887 6.485715-3.471055 8.723685L286.358425 825.376267 286.358425 825.376267zM570.662563 901.241119L570.662563 901.241119c-16.668635 2.009773-33.000602 2.904143-50.455135 2.904143-16.897855 0-34.013675-0.89437-50.352805-2.904143l0-46.545082c0-3.808746 1.789763-6.941086 3.690042-9.179057l0 0c2.016937-2.237971 5.487991-3.800559 8.950859-3.800559l75.526137 0c3.470031 0 6.602372 1.562589 8.841366 3.800559 2.347464 2.237971 3.799536 5.370311 3.799536 9.179057L570.662563 901.241119 570.662563 901.241119zM792.317848 791.811824L792.317848 791.811824l-1.681292 1.122567c-11.416004 11.408841-23.609721 22.150486-36.250622 32.4429l-33.009811-33.565467c-2.456958-2.238994-3.471055-5.818519-3.471055-8.723685 0-3.13234 1.013073-6.492878 3.471055-9.179057l53.148477-53.029774c2.905166-2.465145 5.928013-3.809769 9.17087-3.809769 3.251044 0 6.383384 1.343601 8.621355 3.809769L825.658188 753.769392C815.254234 766.975159 804.285414 779.955798 792.317848 791.811824L792.317848 791.811824zM849.487919 718.41314L849.487919 718.41314l-27.300786-27.520797c-10.513448-10.521634-24.615631-15.44476-38.489616-15.44476-13.645788 0-28.305673 5.370311-38.488593 15.44476l-53.588499 53.257971c-10.521634 10.960633-16.001439 24.616654-16.001439 38.936801 0 13.645788 5.478781 27.300786 16.001439 38.489616l0.448208-0.228197 0 0.228197 27.072589 27.520797c-32.56058 19.691481-68.365041 34.909068-106.736976 44.088124l0-38.489616 0.220011 0c0-15.44476-6.485715-29.090549-15.883759-39.163975-9.963932-9.618055-23.837918-15.436574-38.71679-15.436574l-75.526137 0c-14.878872 0-28.752858 5.818519-38.488593 15.436574l-0.220011 0.448208c-9.626241 9.626241-15.891945 23.27203-15.891945 38.71679l0 0 0 38.709627c-37.70474-9.399067-73.956386-24.616654-106.736976-44.308135l27.520797-27.520797 0-0.228197c10.631128-10.961656 16.110933-24.616654 16.110933-38.262442 0-14.320147-5.479805-27.976168-16.110933-38.936801l-53.368488-53.257971c-10.631128-10.521634-24.27794-15.44476-38.269605-15.44476-14.093996 0-27.747971 4.923126-38.709627 15.44476l-27.300786 27.520797c-20.138666-32.67212-35.245735-68.923766-44.644803-106.516965l39.164998 0 0 0.227174c14.878872 0 28.305673-6.493901 38.261419-16.559141 10.412141-9.626241 16.340153-23.50125 16.340153-38.042431l0-75.636654c0-14.996552-5.928013-29.090549-16.340153-38.489616l0 0c-9.955746-10.073426-23.382547-16.111956-38.261419-16.111956l-39.164998 0c9.399067-38.042431 24.506137-73.626881 44.644803-106.744139l27.080775 27.52796 0.220011 0.667196c10.960633 10.293437 24.615631 15.216563 38.709627 15.216563l0-0.448208c13.991666 0 27.865651-4.475941 38.269605-14.769378l53.368488-53.706179c10.631128-10.960633 16.110933-24.835641 16.110933-38.936801 0-13.873985-5.479805-27.520797-16.110933-38.262442l-27.520797-27.976168c32.780591-19.464307 68.475558-34.909068 106.736976-43.859927l0 38.71679c0 15.216563 6.265704 28.863375 15.891945 38.708604l0 0c9.955746 9.627265 23.829731 15.891945 38.708604 15.891945l75.526137 0c14.32117 0 27.747971-5.818519 37.70474-15.216563l0-0.228197 1.01205-0.448208 0 0c9.399067-10.06524 15.664771-23.720238 15.664771-38.708604l0-38.71679c38.371936 8.950859 74.175373 24.39562 106.516965 43.859927l-27.300786 27.976168c-10.521634 10.741645-16.001439 24.388457-16.001439 38.262442 0 14.101159 5.478781 27.975145 16.001439 38.936801l53.588499 53.706179c10.412141 10.293437 24.842805 15.216563 38.488593 15.216563 13.875009 0 27.976168-4.923126 38.489616-15.216563l27.300786-28.195156c19.810185 33.118282 34.688034 68.702732 44.196595 106.744139l-38.826284 0c-14.32117 0-27.967982 6.037507-37.703717 15.663748l0 0-1.004887 0.448208c-9.399067 9.399067-15.891945 23.493064-15.891945 38.489616l0 75.636654c0 14.32117 5.935176 27.967982 15.44476 37.5932l0 0 0.448208 0.448208c10.18292 10.06524 23.830755 16.331967 38.708604 16.331967l38.826284 0C884.175953 649.490398 869.298104 685.74102 849.487919 718.41314L849.487919 718.41314zM854.85823 569.82601L854.85823 569.82601c-3.352351 0-6.375198-1.342578-8.833179-3.800559l0 0c-2.238994-2.237971-3.580548-5.370311-3.580548-8.503675l0-75.636654c0-3.133364 1.342578-6.941086 3.580548-8.730848l0 0c2.456958-2.685155 5.479805-4.027733 8.833179-4.027733l46.77328 0c2.127454 16.559141 3.133364 33.345456 3.133364 50.801013 0 16.331967-1.004887 33.56649-3.133364 49.898457L854.85823 569.82601 854.85823 569.82601zM676.621826 362.837772L676.621826 362.837772c-39.940664-39.612183-95.547123-64.895009-156.414399-64.895009-60.536748 0-115.13832 24.387433-155.417699 63.771419l-1.452071 1.12359c-39.721677 40.052205-64.557318 95.548146-64.557318 157.089781 0 61.086264 24.835641 116.13502 64.557318 156.415422l0.556679 0c39.612183 40.279379 95.328136 65.123206 156.313092 65.123206 60.639079 0 115.239628-24.396643 155.410536-64.227814l1.232061-0.895393c40.052205-40.279379 64.778352-95.328136 64.778352-156.415422 0-61.541635-24.726148-117.0386-64.778352-157.089781L676.621826 362.837772 676.621826 362.837772zM647.084093 646.585231L647.084093 646.585231l-0.666172 0.895393c-32.340569 31.776727-77.206406 51.688219-126.20947 51.688219-49.567929 0-94.323249-20.139689-127.112026-52.583612-32.443923-32.898271-52.135404-77.206406-52.135404-126.656655 0-49.90562 19.692504-94.212732 52.135404-127.332037l1.570775-1.11438c31.775704-31.328519 76.42153-51.696406 125.542274-51.696406 49.450249 0 94.315062 20.366863 126.875642 52.810786 32.562627 33.119305 52.921303 77.426417 52.921303 127.332037C700.004373 569.377802 679.64672 613.685937 647.084093 646.585231L647.084093 646.585231z"
    fill="currentColor" p-id="6193"></path>
</svg>
