<svg t="1736822645685" class="icon" viewBox="0 0 1024 1024" version="1.1" xmlns="http://www.w3.org/2000/svg"
     p-id="54625">
  <path
    d="M162.156089 386.844444C148.002133 386.844444 136.533333 397.016178 136.533333 409.6s11.4688 22.755556 25.622756 22.755556C174.990222 432.355556 221.206756 432.355556 273.066667 432.355556l0 79.644444c0 18.864356 15.291733 34.133333 34.133333 34.133333s34.133333-15.268978 34.133333-34.133333L341.333333 432.355556c54.226489 0 101.808356 0 110.910578 0C466.397867 432.355556 477.866667 422.183822 477.866667 409.6s-11.4688-22.755556-25.622756-22.755556c-9.0112 0-56.615822 0-110.910578 0l0-68.266667c54.226489 0 101.808356 0 110.910578 0C466.397867 318.577778 477.866667 308.406044 477.866667 295.822222c0-12.561067-11.4688-22.755556-25.622756-22.755556-7.668622 0-43.485867 0-87.495111 0l79.872-79.872c13.334756-13.312 13.334756-34.952533 0-48.264533-13.334756-13.334756-34.929778 9.4208-48.264533 22.755556l-88.519111 70.633244L219.363556 167.685689c-13.334756-13.312-34.952533-36.067556-48.287289-22.755556-13.334756 13.334756-13.312 34.952533 0 48.264533l79.872 79.872c-42.416356 0-77.869511 0-88.769422 0C148.002133 273.066667 136.533333 283.261156 136.533333 295.822222c0 12.583822 11.4688 22.755556 25.622756 22.755556C174.990222 318.577778 221.206756 318.577778 273.066667 318.577778l0 68.266667C221.138489 386.844444 174.921956 386.844444 162.156089 386.844444z"
    fill="currentColor" p-id="54626"></path>
  <path
    d="M728.177778 661.412978c0-46.193778 0-91.295289 0-127.203556 32.244622 7.645867 52.8384 26.146133 57.161956 48.674133 0 14.518044 13.607822 26.8288 28.922311 26.8288S841.955556 597.947733 841.955556 583.4752c0-4.346311-1.410844-8.260267-3.367822-11.8784-9.557333-45.010489-50.403556-80.6912-110.409956-90.635378 0-12.174222 0-20.343467 0-22.914844C728.177778 443.847111 718.006044 432.355556 705.422222 432.355556s-22.755556 11.491556-22.755556 25.645511c0 2.389333 0 9.784889 0 20.6848-82.011022 4.278044-136.533333 52.906667-136.533333 112.958578s54.522311 108.657778 136.533333 112.958578c0 46.944711 0 92.546844 0 128.841956-42.712178-5.347556-70.337422-25.622756-75.502933-50.9952 0-14.518044-14.677333-26.806044-31.152356-26.806044-16.475022 0-28.0576 12.174222-28.0576 26.692267 0 4.323556-0.295822 7.850667 1.8432 11.4688C560.810667 841.955556 610.395022 879.4112 682.666667 886.078578c0 10.308267 0 17.954133 0 21.276444C682.666667 921.508978 692.8384 932.977778 705.422222 932.977778s22.755556-11.4688 22.755556-25.622756c0-3.322311 0-10.945422 0-21.390222 82.397867-7.554844 136.533333-54.613333 136.533333-112.275911C864.711111 716.094578 810.575644 668.967822 728.177778 661.412978zM682.666667 652.219733c-49.902933-3.4816-81.055289-29.104356-81.055289-60.575289 0-31.448178 31.152356-57.070933 81.055289-60.552533C682.666667 565.179733 682.666667 607.869156 682.666667 652.219733zM728.177778 833.536c0-33.883022 0-76.003556 0-119.694222 47.741156 5.9392 76.8 30.446933 76.8 59.847111S775.918933 827.5968 728.177778 833.536z"
    fill="currentColor" p-id="54627"></path>
  <path
    d="M546.087822 93.320533C542.492444 92.046222 538.783289 91.022222 534.755556 91.022222c-1.820444 0-3.367822 0.750933-5.165511 1.046756C527.519289 91.977956 525.494044 91.636622 523.377778 91.591111L523.377778 93.297778c-13.198222 4.733156-22.755556 17.021156-22.755556 31.835022s9.557333 27.101867 22.755556 31.835022l0 2.8672C709.0176 165.796978 858.203022 314.959644 864.142222 500.622222c4.755911 13.198222 19.911111 22.755556 34.702222 22.755556 14.700089 0 26.851556-9.398044 31.652978-22.414222l0-24.871822C913.112178 271.883378 750.569244 109.7728 546.087822 93.320533z"
    fill="currentColor" p-id="54628"></path>
  <path
    d="M500.622222 867.032178C314.959644 861.092978 165.774222 709.040356 159.835022 523.377778c-4.733156-13.198222-19.8656-22.755556-34.679467-22.755556s-27.101867 9.557333-31.835022 22.755556c0.045511 2.116267-1.342578 4.141511-1.251556 6.212267C91.773156 531.387733 91.022222 532.935111 91.022222 534.755556c0 2.6624 1.069511 11.446044 2.161778 18.067911 0.637156 6.712889 1.774933 16.019911 3.231289 26.328178 2.8672 20.366222 5.825422 36.704711 6.644622 36.568178 0.091022-0.045511 0.159289-0.318578 0.182044-0.750933 37.0688 169.870222 177.857422 291.202844 354.7136 313.252978 3.572622 1.206044 12.333511 2.048 22.755556 2.048 8.3968 0 15.451022-0.568889 19.888356-1.410844l3.458844 0C515.345067 923.306667 523.377778 912.270222 523.377778 898.844444 523.377778 884.053333 513.820444 871.742578 500.622222 867.032178z"
    fill="currentColor" p-id="54629"></path>
</svg>
