<svg class="icon" viewBox="0 0 1024 1024" version="1.1" xmlns="http://www.w3.org/2000/svg">
  <path d="M315.904 425.472v-99.328c-38.4-8.704-66.048-22.016-83.968-39.936s-26.624-39.936-26.624-65.536c0-26.112 10.24-47.616 30.208-65.536 19.968-17.408 47.104-27.648 80.384-30.208v-23.552H358.4v23.552c31.232 3.072 56.32 11.776 74.752 25.6 18.432 14.336 30.208 33.28 35.328 56.832l-74.24 8.192c-4.608-18.432-16.384-31.232-35.328-37.888v92.672c47.104 10.24 79.36 23.552 96.256 39.936s25.6 37.376 25.6 62.976c0 28.672-10.752 52.736-32.256 72.192-21.504 19.456-51.2 31.744-89.6 36.864v44.032h-42.496v-43.52c-33.792-3.072-60.928-13.312-82.432-30.208s-34.816-40.96-40.448-71.68l76.288-7.168c3.072 12.8 9.216 23.552 17.408 32.768 8.704 8.192 18.432 14.848 28.672 18.944z m267.264 374.272h97.28v-28.672h-97.28v-33.28h77.824l-102.4-155.136h76.288l82.944 125.44 81.92-125.44h75.776L774.144 737.792h93.696v33.28H756.736v28.672H867.84v33.28H756.736v90.624h-76.288v-90.624h-97.28v-33.28zM148.48 762.88h37.888c-1.024-9.216-1.536-18.432-1.024-27.648H148.48v-32.256h40.96c15.36-75.264 75.776-140.288 180.224-140.288 51.712 0 98.816 20.48 132.608 53.248 4.608 4.096 8.704 8.704 12.288 13.312l-52.224 29.696c-1.536-1.536-3.072-3.584-4.608-5.12a125.96 125.96 0 0 0-88.064-35.84c-60.928 1.024-97.792 38.4-111.616 84.48h167.424v32.256H252.416c-0.512 9.216 0 18.432 1.024 27.648h172.032v32.256h-163.84c15.872 40.96 51.712 72.192 108.032 71.168 27.648 0 53.248-8.704 74.24-24.064l50.176 34.304c-33.28 28.672-76.8 46.08-124.416 46.08-98.816 0-157.696-57.856-177.152-127.488H148.48V762.88z m402.944-446.464h28.672c-8.704-17.92-14.336-37.376-16.384-56.32-2.56-25.088 2.048-50.176 14.848-72.192 13.824-23.552 36.352-43.008 69.632-54.784 17.92-6.656 38.4-10.752 61.44-12.288 31.744-2.048 64 4.096 91.136 17.408 26.112 12.8 48.128 32.256 60.928 57.344l-69.632 23.04c-6.656-12.8-17.408-22.016-30.208-28.672-13.824-6.656-30.208-9.728-46.592-8.704-14.848 1.024-27.136 3.584-36.864 7.168-15.872 5.632-26.112 14.848-32.256 25.088-7.168 11.776-9.216 26.624-7.68 41.984 1.536 15.36 6.656 31.232 14.848 45.568 3.072 5.12 5.632 10.24 8.192 15.872h105.472v33.28H675.84c5.12 15.36 7.68 31.232 7.168 47.616 0 4.096-0.512 8.192-1.536 12.288 1.024 0 2.56 0.512 3.584 0.512 35.328 4.608 58.88 13.824 78.336 21.504 17.408 6.656 28.16 10.752 50.176-6.656l52.736 43.52c-59.904 47.616-88.576 36.352-135.68 17.92-15.36-6.144-33.28-12.8-58.368-16.384-11.264-1.536-26.112 5.632-37.888 12.288-7.168 5.632-14.848 10.752-23.552 15.872L563.2 450.56s7.168-5.632 19.456-13.312c17.408-13.824 24.064-28.672 25.088-43.008 0.512-14.336-3.584-29.696-10.24-45.056h-45.568v-32.768h-0.512zM315.904 176.64c-11.776 3.072-20.48 8.704-27.136 16.384-6.656 7.68-10.24 15.872-10.24 25.088 0 8.192 3.072 16.384 9.216 23.552 6.144 7.168 15.36 12.8 28.16 17.408V176.64z m43.008 252.416c14.848-2.56 26.624-8.192 35.84-16.896 9.216-8.704 13.824-18.944 13.824-30.72 0-10.752-4.096-19.456-11.776-27.136s-20.48-13.312-38.4-17.92v92.672z" fill="currentColor"></path>
  <path d="M512 64c60.5 0 119.2 11.8 174.4 35.2 53.3 22.6 101.3 54.9 142.4 96 41.2 41.2 73.5 89.1 96 142.4C948.2 392.8 960 451.5 960 512s-11.8 119.2-35.2 174.4c-22.6 53.3-54.9 101.3-96 142.4-41.2 41.2-89.1 73.5-142.4 96C631.2 948.2 572.5 960 512 960s-119.2-11.8-174.4-35.2c-53.3-22.6-101.3-54.9-142.4-96-41.2-41.2-73.5-89.1-96-142.4C75.8 631.2 64 572.5 64 512s11.8-119.2 35.2-174.4c22.6-53.3 54.9-101.3 96-142.4s89.1-73.5 142.4-96C392.8 75.8 451.5 64 512 64m0-64C229.2 0 0 229.2 0 512s229.2 512 512 512 512-229.2 512-512S794.8 0 512 0z" fill="currentColor"></path>
</svg>
