<svg t="1743575372388" class="icon" viewBox="0 0 1024 1024" version="1.1" xmlns="http://www.w3.org/2000/svg"
     p-id="14494">
  <path
    d="M512 106.667c129.603 0 234.667 105.064 234.667 234.666 0 125.034-97.787 227.228-221.055 234.279l-0.638 0.632-9.445-0.227L512 576c-193.136 0-351.01 150.971-362.05 341.34-5.098 14.218-15.372 21.327-30.823 21.327-15.452 0-26.542-7.106-33.27-21.319 8.823-179.304 128.331-329.507 291.63-383.712-60.558-42.424-100.154-112.74-100.154-192.303 0-129.602 105.064-234.666 234.667-234.666zM912.965 633.6c11.783 0 21.334 9.551 21.334 21.333v134.4c0 15.317-12.417 27.734-27.734 27.734-14.359 0-26.17-10.913-27.59-24.898l-0.143-2.836-0.022-67.648-136.606 155.946-120.316-113.044-144.69 155.067c-9.753 10.451-25.69 11.676-36.877 3.297l-2.32-1.943c-10.452-9.753-11.677-25.691-3.297-36.877l1.942-2.32L590.11 717.364c15.23-16.32 40.264-18.017 57.505-4.48l2.902 2.493 87.81 82.49 95.343-108.822-65.669 0.022c-14.36 0-26.17-10.913-27.59-24.898l-0.143-2.836c0-14.36 10.913-26.17 24.897-27.59L768 633.6h144.965zM512 170.667c-94.257 0-170.667 76.41-170.667 170.666C341.333 435.59 417.743 512 512 512s170.667-76.41 170.667-170.667c0-94.256-76.41-170.666-170.667-170.666z"
    fill="currentColor" p-id="14495"></path>
</svg>
