<svg t="1743575523241" class="icon" viewBox="0 0 1024 1024" version="1.1" xmlns="http://www.w3.org/2000/svg"
     p-id="16381">
  <path
    d="M954.624316 804.684725h-157.592427v148.056085a38.74746 38.74746 0 0 1-38.74746 38.766882h-0.174801a38.766883 38.766883 0 0 1-38.766882-38.766882v-148.056085h-165.458453a36.047763 36.047763 0 1 1 0-72.076103h165.458453v-141.141751c0-21.403359 17.363524-38.74746 38.766882-38.74746h0.174801c21.403359 0 38.74746 17.344101 38.74746 38.74746v141.141751h157.592427a36.047763 36.047763 0 0 1 0 72.076103zM672.457348 475.22449c-53.819154 49.44914-133.159192 46.419263-161.418618 46.419263-227.842835 0-413.267398 168.66313-413.733533 375.918343v8.526383c-0.116534 18.956151 6.739533 79.398305-38.844572 70.969033-21.519893 0-38.980528-15.88743-38.980527-35.484517v-45.001436C19.946233 777.474102 71.104533 665.601736 163.729415 581.425549a498.550655 498.550655 0 0 1 187.153146-106.628349c-71.279789-46.127929-117.912697-121.797155-117.912697-207.255213 0-139.976414 125.234899-253.96581 279.001136-253.965809s279.001136 113.85344 279.001136 253.965809c0 85.749392-46.943665 161.69053-118.514788 207.682503zM511.971 84.54521c-110.88183 0-201.020658 82.059158-201.020659 182.996777 0 100.93762 90.294207 182.977355 201.020659 182.977355 110.88183 0 201.020658-82.039735 201.020658-182.977355 0-100.93762-90.138829-182.996777-201.020658-182.996777z"
    fill="currentColor"></path>
</svg>
