<svg t="1745566891880" class="icon" viewBox="0 0 1024 1024" version="1.1" xmlns="http://www.w3.org/2000/svg" p-id="1883">
  <path
    d="M939.084071 130.298623c-18.878398-27.189275-49.935911-43.42912-83.072936-43.42912-20.654839 0-40.57248 6.246724-57.604813 18.071576-45.75334 31.796759-57.126658 94.911098-25.344233 140.691058a100.913114 100.913114 0 0 0 11.963076 14.211529l-51.156382 114.476522a101.137345 101.137345 0 0 0-34.747597-6.164813c-20.669173 0-40.58579 6.247748-57.604812 18.071576-27.221015 18.912186-42.269058 48.897691-43.308301 79.726878l-146.038812 30.880382a100.818916 100.818916 0 0 0-12.339866-24.117619c-18.891708-27.175964-49.950246-43.402499-83.086246-43.402499-20.654839 0-40.57248 6.246724-57.605836 18.071576-45.75334 31.810069-57.113347 94.911098-25.330923 140.691058a101.149631 101.149631 0 0 0 7.952517 10.012575l-85.542547 138.171277a101.118915 101.118915 0 0 0-31.852049-5.154239c-20.669173 0-40.58579 6.246724-57.604812 18.071576-22.173261 15.392068-37.031884 38.508327-41.816501 65.096581-4.784616 26.574944 1.065865 53.40893 16.472267 75.567857 18.878398 27.189275 49.936935 43.42912 83.072936 43.42912 20.654839 0 40.57248-6.246724 57.604813-18.071576 22.173261-15.406402 37.018574-38.521638 41.80319-65.096582 4.784616-26.57392-1.065865-53.422241-16.472267-75.581166a101.287856 101.287856 0 0 0-4.982226-6.568225l86.86643-140.309149a101.187515 101.187515 0 0 0 27.585519 3.835474c20.654839 0 40.57248-6.247748 57.604812-18.071576 21.335722-14.829955 35.190939-36.463628 40.685107-59.969987l156.764011-33.148288a102.026077 102.026077 0 0 0 4.224551 6.615324c18.891708 27.175964 49.950246 43.402499 83.071912 43.402498 20.669173 0 40.58579-6.247748 57.605836-18.071576 45.76665-31.796759 57.126658-94.896764 25.344233-140.677748a102.03222 102.03222 0 0 0-2.24538-3.089062l54.431791-121.806517a101.089222 101.089222 0 0 0 21.754492 2.371318c20.669173 0 40.58579-6.247748 57.604812-18.071576 22.173261-15.392068 37.031884-38.508327 41.816501-65.096581 4.784616-26.574944-1.065865-53.40893-16.472267-75.567856zM208.792743 840.180844c-2.132753 11.851473-8.762411 22.158926-18.645975 29.03534-19.821396 13.792759-49.089158 8.352856-62.744717-11.319052-6.876414-9.883565-9.487321-21.857904-7.354568-33.696067 2.132753-11.851473 8.762411-22.158926 18.659286-29.03534 7.58699-5.277105 16.458957-8.065145 25.658566-8.065144a45.161534 45.161534 0 0 1 24.270178 7.090406 28.255139 28.255139 0 0 0 3.205785 2.315004c0.140272 0.08703 0.285664 0.159726 0.427984 0.244709a44.917849 44.917849 0 0 1 9.168893 9.720767c6.876414 9.882541 9.487321 21.85688 7.354568 33.709377z m173.759483-272.756907c-19.834707 13.807094-49.102469 8.338522-62.759051-11.291408-14.175692-20.423441-9.104388-48.569024 11.291408-62.759051 7.600301-5.277105 16.472267-8.065145 25.658566-8.065145 14.804358 0 28.680052 7.245013 37.100485 19.370887a44.794983 44.794983 0 0 1 8.03238 24.748332c-0.012287 0.475083-0.012287 0.952213 0 1.430368-0.162798 14.097877-6.891772 27.921353-19.323788 36.566017z m342.350393-61.173053c-19.793751 13.765114-49.089158 8.379477-62.744717-11.291407-14.175692-20.423441-9.104388-48.569024 11.304718-62.744717 7.58699-5.277105 16.458957-8.065145 25.658566-8.065145 14.791047 0 28.665717 7.231702 37.086151 19.356552 14.175692 20.422417 9.104388 48.568-11.304718 62.744717z m175.550258-310.308925c-2.132753 11.851473-8.762411 22.158926-18.659286 29.03534-19.793751 13.779449-49.102469 8.366167-62.744716-11.291408-14.175692-20.423441-9.104388-48.569024 11.304717-62.759051 7.600301-5.276081 16.472267-8.065145 25.658567-8.065145 14.804358 0 28.665717 7.245013 37.08615 19.384197 6.87539 9.882541 9.486298 21.857904 7.354568 33.696067z"
    fill="currentColor" p-id="1884"></path>
</svg>
