<svg t="1741143697580" class="icon" viewBox="0 0 1024 1024" version="1.1" xmlns="http://www.w3.org/2000/svg" p-id="1534">
  <path
    d="M812.4 213.4V813H210.3V213.4h602.1m-669-19.5v638.6c0 26.2 21.2 47.4 47.4 47.4h641.1c26.2 0 47.4-21.2 47.4-47.4V193.9c0-26.2-21.2-47.4-47.4-47.4H190.8c-26.2 0-47.4 21.2-47.4 47.4z"
    fill="currentColor" p-id="1535"></path>
  <path
    d="M344.3 714.8c-18.7 0-33.8-15.1-33.8-33.8V547c0-18.7 15.1-33.8 33.8-33.8 18.7 0 33.8 15.1 33.8 33.8v134c0 18.6-15.2 33.8-33.8 33.8zM511.3 714.8c-18.7 0-33.8-15.1-33.8-33.8V346.5c0-18.7 15.1-33.8 33.8-33.8 18.7 0 33.8 15.1 33.8 33.8V681c0 18.6-15.1 33.8-33.8 33.8zM678.6 714.8c-18.7 0-33.8-15.1-33.8-33.8V480.3c0-18.7 15.1-33.8 33.8-33.8 18.7 0 33.8 15.1 33.8 33.8V681c0 18.6-15.2 33.8-33.8 33.8z"
    fill="currentColor" p-id="1536"></path>
</svg>
