<svg t="1754897481596" class="icon" viewBox="0 0 1024 1024" version="1.1" xmlns="http://www.w3.org/2000/svg"
     p-id="11884">
  <path
    d="M686.933333 981.333333H597.333333v-170.666666h25.6c17.066667 0 38.4 0 55.466667-12.8 21.333333-17.066667 29.866667-29.866667 38.4-46.933334l106.666667-187.733333c4.266667-8.533333 8.533333-17.066667 8.533333-21.333333 4.266667-8.533333 4.266667-21.333333 4.266667-34.133334 0-21.333333-4.266667-38.4-17.066667-55.466666l-106.666667-183.466667c-8.533333-17.066667-21.333333-34.133333-38.4-42.666667-12.8-8.533333-34.133333-12.8-55.466666-12.8H597.333333V42.666667h89.6c29.866667 0 59.733333 8.533333 85.333334 25.6s46.933333 38.4 59.733333 68.266666l166.4 290.133334c17.066667 25.6 25.6 55.466667 25.6 85.333333 0 17.066667 0 25.6-4.266667 46.933333-4.266667 12.8-8.533333 29.866667-17.066666 42.666667l-170.666667 294.4c-12.8 25.6-34.133333 46.933333-59.733333 64-25.6 12.8-55.466667 21.333333-85.333334 21.333333zM426.666667 981.333333H341.333333c-29.866667 0-59.733333-8.533333-85.333333-25.6s-42.666667-34.133333-59.733333-68.266666L25.6 597.333333c-17.066667-25.6-25.6-55.466667-25.6-85.333333 0-12.8 0-29.866667 4.266667-42.666667 4.266667-12.8 8.533333-29.866667 17.066666-42.666666l170.666667-294.4c12.8-25.6 34.133333-46.933333 59.733333-64S307.2 42.666667 341.333333 42.666667h85.333334v170.666666h-25.6c-21.333333 0-38.4 4.266667-55.466667 12.8-17.066667 8.533333-29.866667 25.6-38.4 42.666667l-106.666667 187.733333c-4.266667 8.533333-8.533333 12.8-12.8 25.6-4.266667 12.8 0 17.066667 0 25.6 0 21.333333 4.266667 38.4 17.066667 55.466667l106.666667 183.466667c8.533333 17.066667 21.333333 34.133333 34.133333 46.933333 12.8 17.066667 38.4 17.066667 55.466667 17.066667h25.6v170.666666z m-4.266667-366.933333l-46.933333-81.066667c-4.266667-8.533333-8.533333-17.066667-8.533334-25.6 0-8.533333 0-12.8 4.266667-21.333333l46.933333-81.066667c8.533333-17.066667 25.6-25.6 42.666667-25.6H554.666667c17.066667 0 34.133333 8.533333 42.666666 25.6l46.933334 81.066667c4.266667 8.533333 8.533333 17.066667 8.533333 25.6 0 8.533333 0 17.066667-4.266667 25.6l-46.933333 81.066667c-8.533333 12.8-25.6 25.6-38.4 25.6H469.333333c-17.066667 0-38.4-12.8-46.933333-29.866667z"
    fill="currentColor" p-id="11885"></path>
</svg>
