<svg t="1754987605181" class="icon" viewBox="0 0 1024 1024" version="1.1" xmlns="http://www.w3.org/2000/svg"
     p-id="14429">
  <path
    d="M946.260451 786.2829c-5.981225-2.991124-37.940101-21.662369-71.864747-41.48688-90.577948-52.936653-129.544425-75.367525-134.415363-76.350922-7.519254-3.802606-15.893992-3.588735-22.815635 0.726548-7.006578 4.315282-11.279904 12.134365-11.279904 20.466124v74.300216H590.440513L401.080771 517.068436l168.937621-258.746043 115.188462 1.196245v69.001537c0 9.314133 4.614088 17.304108 12.390191 21.448498 7.43432 4.058432 16.064884 3.674693 22.302959-0.555655 3.759627-2.264577 20.678972-12.048407 43.409672-25.208125 78.615499-45.417399 156.033729-90.236164 163.554006-95.833649l1.965772-2.136663c4.529153-6.750751 7.946996-18.030655 5.297656-27.985378-1.708921-6.408967-5.63944-11.32186-11.279904-14.142092-5.810333-2.905166-35.376719-20.166295-69.557193-40.161698-92.115977-53.877071-131.680065-76.692706-136.721894-77.718059-7.605212-3.88754-16.064884-3.545756-22.815635 0.769526-6.921643 4.315282-11.193947 12.134365-11.193947 20.423145v71.607898H518.319939l-2.64934 3.289929c-7.605212 9.442046-94.851275 145.523351-179.277106 277.417288l-1.794879 2.734274H65.342194v100.575649h227.044016l243.878427 318.006728 2.563382 3.417843h164.408467v66.224284c0 9.314133 4.614088 17.346063 12.305257 21.491476 3.417843 1.794879 7.17747 2.734274 10.767228 2.734274 4.101411 0 8.202822-1.153266 11.621688-3.417842 4.101411-2.435469 21.020756-12.219299 43.580564-25.251104 81.776492-47.212278 155.862837-90.108251 163.383115-95.705736 8.716522-6.579859 13.757329-17.21815 12.817933-27.130917-0.685615-7.561209-4.872984-13.84124-11.45182-17.131169z"
    fill="currentColor" p-id="14430"></path>
</svg>
