<svg class="icon" viewBox="0 0 16 16" fill="none" xmlns="http://www.w3.org/2000/svg">
  <path
    fill-rule="evenodd"
    clip-rule="evenodd"
    d="M5.33333 5.33335C6.06971 5.33335 6.66667 4.7364 6.66667 4.00002C6.66667 3.26364 6.06971 2.66669 5.33333 2.66669C4.59695 2.66669 4 3.26364 4 4.00002C4 4.7364 4.59695 5.33335 5.33333 5.33335ZM10.6667 5.33335C11.403 5.33335 12 4.7364 12 4.00002C12 3.26364 11.403 2.66669 10.6667 2.66669C9.93029 2.66669 9.33333 3.26364 9.33333 4.00002C9.33333 4.7364 9.93029 5.33335 10.6667 5.33335ZM6.66667 8.00002C6.66667 8.7364 6.06971 9.33335 5.33333 9.33335C4.59695 9.33335 4 8.7364 4 8.00002C4 7.26364 4.59695 6.66669 5.33333 6.66669C6.06971 6.66669 6.66667 7.26364 6.66667 8.00002ZM10.6667 9.33335C11.403 9.33335 12 8.7364 12 8.00002C12 7.26364 11.403 6.66669 10.6667 6.66669C9.93029 6.66669 9.33333 7.26364 9.33333 8.00002C9.33333 8.7364 9.93029 9.33335 10.6667 9.33335ZM6.66667 12C6.66667 12.7364 6.06971 13.3334 5.33333 13.3334C4.59695 13.3334 4 12.7364 4 12C4 11.2636 4.59695 10.6667 5.33333 10.6667C6.06971 10.6667 6.66667 11.2636 6.66667 12ZM10.6667 13.3334C11.403 13.3334 12 12.7364 12 12C12 11.2636 11.403 10.6667 10.6667 10.6667C9.93029 10.6667 9.33333 11.2636 9.33333 12C9.33333 12.7364 9.93029 13.3334 10.6667 13.3334Z"
    fill="currentColor"
  />
</svg>
