<svg t="1737440751907" class="icon" viewBox="0 0 1024 1024" version="1.1" xmlns="http://www.w3.org/2000/svg"
     p-id="23324">
  <path
    d="M228.544 455.296c44.416 0 85.376-14.528 118.4-39.168 4.48 5.248 10.112 12.352 16.896 21.248 16.512 21.76 39.552 53.76 68.992 96l-44.928 149.12a141.76 141.76 0 1 0 56.96 7.296l40.192-133.248 233.216-26.176a141.76 141.76 0 1 0-7.552-56.192l-231.936 25.984c-47.04-67.648-73.472-104.704-91.52-124.224a198.4 198.4 0 1 0-158.72 79.36z m0-56.704a141.76 141.76 0 1 1 0-283.456 141.76 141.76 0 0 1 0 283.52z m708.672 85.12a85.056 85.056 0 1 1-170.112 0 85.056 85.056 0 0 1 170.112 0z m-453.568 340.096a85.056 85.056 0 1 1-170.048 0 85.056 85.056 0 0 1 170.048 0z"
    fill="currentColor" p-id="23325"></path>
</svg>
