<svg t="1736330416467" class="icon" viewBox="0 0 1024 1024" version="1.1" xmlns="http://www.w3.org/2000/svg">
  <path
    d="M130.0992 397.2608a42.6496 42.6496 0 1 1 81.7152-24.6784c88.9856 298.0864 511.1808 298.1376 600.32 0.2048a42.7008 42.7008 0 1 1 81.8176 24.2688 405.76 405.76 0 0 1-77.3632 145.8688l54.4256 54.4256a42.6496 42.6496 0 0 1-60.3648 60.3136l-55.9104-55.9616a389.0688 389.0688 0 0 1-99.0208 54.1696l15.2576 56.9344a42.6496 42.6496 0 1 1-82.432 22.1184l-15.4624-57.856a417.8944 417.8944 0 0 1-122.1632 0l-15.4624 57.856a42.6496 42.6496 0 1 1-82.432-22.0672l15.2576-56.9856a389.12 389.12 0 0 1-98.9696-54.1696l-55.9616 55.9616a42.6496 42.6496 0 1 1-60.3648-60.3136l54.4256-54.4256a405.76 405.76 0 0 1-77.312-145.664z"
    fill="currentColor"></path>
</svg>
