<svg t="1736330365918" class="icon" viewBox="0 0 1024 1024" version="1.1" xmlns="http://www.w3.org/2000/svg">
  <path
    d="M512 768c-203.1616 0-308.736-163.328-339.712-257.024C196.7616 424.0384 293.6832 256 512 256c220.8768 0 316.5696 158.464 339.9168 254.2592C821.248 603.904 715.6224 768 512 768z m0-597.3504c-284.3648 0-402.0224 229.6832-425.5744 331.776l-2.4576 10.752 3.0208 10.5472c30.72 107.7248 158.208 329.6256 425.0112 329.6256 266.752 0 394.24-221.9008 425.0112-329.6256l2.8672-9.9328-2.048-10.1376C914.0224 384.512 795.136 170.6496 512 170.6496zM597.3504 512c15.36 0 29.696-4.096 42.1888-11.1616a128 128 0 1 1-116.3776-116.3776 85.3504 85.3504 0 0 0 74.24 127.488z"
    fill="currentColor"></path>
</svg>
