<svg t="1737092440457" class="icon" viewBox="0 0 1024 1024" version="1.1" xmlns="http://www.w3.org/2000/svg"
     p-id="12743">
  <path
    d="M832 64a32 32 0 0 1 31.488 26.24l0.512 5.76-0.128 739.008-0.896 5.12-1.856 5.12-2.432 4.416-3.648 4.48-92.032 95.744a32 32 0 0 1-36.8 6.72l-5.056-3.008-110.144-79.808-77.44 76.672a32 32 0 0 1-39.808 4.16l-4.992-4.032-78.144-76.224-100.48 78.528a32 32 0 0 1-37.44 1.472l-4.544-3.712-98.496-95.744a31.872 31.872 0 0 1-9.28-18.048l-0.384-5.888V96a32 32 0 0 1 26.24-31.488L192 64h640z m-32 63.936h-576v690.496l68.736 66.816 100.48-78.528a32 32 0 0 1 37.504-1.408l4.608 3.712 75.584 73.792 74.432-73.6a32 32 0 0 1 36.352-6.144l4.992 3.008 109.44 79.296 63.872-66.368V127.936z m-94.592 446.72a32 32 0 0 1 5.76 63.488l-5.76 0.512H320a32 32 0 0 1-5.76-63.488L320 574.656h385.408zM568.768 414.208a32 32 0 0 1 5.76 63.488l-5.76 0.512H320a32 32 0 0 1-5.76-63.488L320 414.208h248.768zM480 254.336a32 32 0 0 1 5.76 63.488l-5.76 0.512H320a32 32 0 0 1-5.76-63.424L320 254.336h160z"
    fill="currentColor"></path>
</svg>
