<svg t="1751441094401" class="icon" viewBox="0 0 1024 1024" version="1.1" xmlns="http://www.w3.org/2000/svg"
     p-id="10905">
  <path
    d="M179.2 240.57856a30.72 30.72 0 0 0 0 61.44h204.8a30.72 30.72 0 0 0 0-61.44H179.2zM179.2 394.17856a30.72 30.72 0 0 0 0 61.44h153.6a30.72 30.72 0 0 0 0-61.44H179.2zM179.2 547.77856a30.72 30.72 0 0 0 0 61.44h153.6a30.72 30.72 0 1 0 0-61.44H179.2z"
    p-id="10906" fill="currentColor"></path>
  <path
    d="M686.08 245.69856a30.72 30.72 0 0 1 30.72-30.72c63.49312 0 104.28416 32.56832 127.95904 68.08064 22.55872 33.8432 30.76096 71.76704 30.76096 90.63936a30.72 30.72 0 0 1-30.72 30.72h-128a30.72 30.72 0 0 1-30.72-30.72v-128z m61.44 35.26144v62.01856h59.27424a128.96256 128.96256 0 0 0-13.15328-25.84064c-10.34752-15.51872-24.88832-29.3376-46.12096-36.17792z"
    p-id="10907" fill="currentColor"></path>
  <path
    d="M628.28544 281.1392a30.72 30.72 0 0 0-15.3856-59.47904C522.49088 245.04832 455.68 327.13216 455.68 424.9088c0 115.93728 93.98272 209.92 209.92 209.92 98.73408 0 181.48352-68.13696 203.91936-159.91808a30.72 30.72 0 1 0-59.67872-14.592c-15.872 64.9216-74.4704 113.07008-144.24064 113.07008-82.00192 0-148.48-66.47808-148.48-148.48 0-69.08416 47.2064-127.21664 111.16544-143.75936z"
    p-id="10908" fill="currentColor"></path>
  <path
    d="M35.77856 157.1328c0-49.95584 40.4992-90.45504 90.45504-90.45504h776.53504c49.95584 0 90.44992 40.4992 90.44992 90.45504v537.6c0 49.95584-40.49408 90.45504-90.44992 90.45504H126.2336c-49.95584 0-90.45504-40.4992-90.45504-90.45504v-537.6z m90.45504-29.01504a29.01504 29.01504 0 0 0-29.01504 29.01504v537.6a29.01504 29.01504 0 0 0 29.01504 29.01504h776.53504a29.01504 29.01504 0 0 0 29.00992-29.01504v-537.6a29.01504 29.01504 0 0 0-29.00992-29.01504H126.2336z"
    p-id="10909" fill="currentColor"></path>
  <path
    d="M240.57856 932.3008a30.72 30.72 0 0 1 30.72-30.72h477.87008a30.72 30.72 0 0 1 0 61.44H271.29856a30.72 30.72 0 0 1-30.72-30.72z"
    p-id="10910" fill="currentColor"></path>
</svg>
