<svg t="1742268259815" class="icon" viewBox="0 0 1024 1024" version="1.1" xmlns="http://www.w3.org/2000/svg" p-id="6734">
  <path
    d="M795.733333 1021.866667H228.266667c-36.266667 0-68.266667-23.466667-78.933334-57.6L12.8 524.8c-12.8-42.666667 10.666667-89.6 53.333333-102.4 8.533333-2.133333 17.066667-4.266667 25.6-4.266667h840.533334c25.6 0 51.2 12.8 66.133333 34.133334 14.933333 21.333333 19.2 49.066667 12.8 72.533333L874.666667 964.266667c-10.666667 34.133333-42.666667 57.6-78.933334 57.6z m-704-548.266667c-2.133333 0-6.4 0-8.533333 2.133333-14.933333 4.266667-23.466667 19.2-19.2 34.133334l136.533333 439.466666c4.266667 10.666667 14.933333 19.2 25.6 19.2h567.466667c12.8 0 23.466667-8.533333 25.6-19.2L960 507.733333c0-2.133333 2.133333-6.4 2.133333-8.533333 0-14.933333-12.8-27.733333-27.733333-27.733333H91.733333z m0 0"
    fill="currentColor" p-id="6735"></path>
  <path
    d="M96 454.4l-64-117.333333c-21.333333-40.533333-8.533333-89.6 32-113.066667l192-106.666667c40.533333-21.333333 89.6-8.533333 113.066667 32l38.4 55.466667-44.8 32-40.533334-57.6c-4.266667-6.4-10.666667-12.8-17.066666-14.933333-6.4-2.133333-14.933333-2.133333-21.333334 2.133333l-192 106.666667c-12.8 6.4-19.2 23.466667-10.666666 38.4l66.133333 117.333333-51.2 25.6z m0 0"
    fill="currentColor" p-id="6736"></path>
  <path
    d="M755.2 473.6H309.333333l59.733334-375.466667c4.266667-21.333333 14.933333-40.533333 32-53.333333 17.066667-12.8 40.533333-19.2 61.866666-14.933333l270.933334 42.666666c44.8 6.4 76.8 49.066667 68.266666 93.866667l-46.933333 307.2z m-381.866667-55.466667h332.8L746.666667 157.866667c2.133333-6.4 0-14.933333-4.266667-21.333334-4.266667-4.266667-10.666667-8.533333-17.066667-10.666666l-270.933333-42.666667c-6.4-2.133333-14.933333 0-21.333333 4.266667-6.4 4.266667-10.666667 10.666667-10.666667 17.066666l-49.066667 313.6z m0 0"
    fill="currentColor" p-id="6737"></path>
  <path
    d="M849.066667 460.8l-46.933334-29.866667 132.266667-213.333333c8.533333-12.8 4.266667-29.866667-8.533333-38.4l-185.6-119.466667c-12.8-8.533333-29.866667-4.266667-38.4 8.533334l-21.333334 34.133333-46.933333-27.733333 21.333333-34.133334C682.666667 0 733.866667-10.666667 772.266667 14.933333l183.466666 119.466667c38.4 25.6 49.066667 76.8 23.466667 115.2l-130.133333 211.2z m0 0"
    fill="currentColor" p-id="6738"></path>
</svg>
