<svg t="1740385793577" class="icon" viewBox="0 0 1024 1024" version="1.1" xmlns="http://www.w3.org/2000/svg"
     p-id="14515">
  <path
    d="M975.36 400.64A88.32 88.32 0 0 0 887.68 320h-57.6c0-176.64-142.72-320-318.08-320-175.36 0-318.08 143.36-318.08 320h-57.6c-45.44 0-83.2 34.56-87.68 80.64l-44.16 446.08c-4.48 45.44 10.24 90.88 40.96 124.8 30.08 33.28 72.96 52.48 118.4 52.48h696.32c45.44 0 88.96-19.2 119.04-53.12 30.08-33.92 45.44-79.36 40.96-124.8l-44.8-445.44zM512 64c140.16 0 254.08 114.56 254.08 256H257.92c0-141.44 113.92-256 254.08-256z m419.84 864c-18.56 20.48-44.16 32-71.68 32H163.84c-27.52 0-53.12-11.52-71.68-32-18.56-20.48-27.52-47.36-24.96-75.52l44.16-446.08c1.28-12.8 12.16-22.4 24.96-22.4h57.6v96c0 17.92 14.08 32 32 32 17.28 0 32-14.08 32-32V384h508.8v96c0 17.92 14.08 32 32 32 17.28 0 32-14.08 32-32V384h57.6c12.8 0 23.68 9.6 24.96 22.4l44.16 446.08c1.92 28.16-7.04 54.4-25.6 75.52z"
    fill="currentColor" p-id="14516"></path>
  <path
    d="M752 679.04a536.768 536.768 0 0 1-480 0 31.744 31.744 0 0 0-42.88 14.08c-7.68 16-1.28 35.2 14.08 42.88 83.84 42.24 176.64 63.36 268.8 63.36 92.16 0 184.32-21.12 268.8-63.36 16-7.68 21.76-26.88 14.08-42.88a31.744 31.744 0 0 0-42.88-14.08z"
    fill="currentColor" p-id="14517"></path>
</svg>
