<svg t="1737100541790" class="icon" viewBox="0 0 1024 1024" version="1.1" xmlns="http://www.w3.org/2000/svg"
     p-id="25975">
  <path
    d="M810.5 63.7H407c-43 0-78 35-78 78v281.2H193.4c-43 0-78 35-78 78v459.7h773V141.7c0.1-43-34.9-78-77.9-78zM357 904.6H171.4V500.9c0-12.1 9.9-22 22-22h403.5c12.1 0 22 9.9 22 22v403.7H357z m475.5 0H674.9V500.9c0-43-35-78-78-78H385V141.7c0-12.1 9.9-22 22-22h403.5c12.1 0 22 9.9 22 22v762.9z"
    fill="currentColor" p-id="25976"></path>
  <path
    d="M915.2 960.6H109.8c-15.5 0-28-12.5-28-28s12.5-28 28-28h805.3c15.5 0 28 12.5 28 28 0.1 15.5-12.5 28-27.9 28zM747.8 255.4h-58.3c-15.5 0-28-12.5-28-28s12.5-28 28-28h58.3c15.5 0 28 12.5 28 28s-12.5 28-28 28zM747.8 374.8h-58.3c-15.5 0-28-12.5-28-28s12.5-28 28-28h58.3c15.5 0 28 12.5 28 28s-12.5 28-28 28zM336.5 615.7h-57.6c-15.5 0-28-12.5-28-28s12.5-28 28-28h57.6c15.5 0 28 12.5 28 28 0 15.4-12.5 28-28 28zM336.5 735.4h-57.6c-15.5 0-28-12.5-28-28s12.5-28 28-28h57.6c15.5 0 28 12.5 28 28s-12.5 28-28 28zM512 615.7h-57.6c-15.5 0-28-12.5-28-28s12.5-28 28-28H512c15.5 0 28 12.5 28 28 0 15.4-12.5 28-28 28zM512 735.4h-57.6c-15.5 0-28-12.5-28-28s12.5-28 28-28H512c15.5 0 28 12.5 28 28s-12.5 28-28 28z"
    fill="currentColor" p-id="25977"></path>
</svg>
