<svg width="1123" height="1024" xmlns="http://www.w3.org/2000/svg" p-id="7400" version="1.1" class="icon" t="1741310995387">

  <g>
    <title>Layer 1</title>
    <g stroke="null" id="svg_5">
      <path stroke="null" id="svg_1" p-id="7401" fill="currentColor" d="m940.13,949.28711l-838.38433,0a101.74567,101.74567 0 0 1 -101.74567,-101.74567l0,-483.29194a101.74567,101.74567 0 0 1 101.74567,-101.74567l838.38433,0a101.74567,101.74567 0 0 1 101.74567,101.74567l0,483.29194a101.74567,101.74567 0 0 1 -101.74567,101.74567zm-838.38433,-605.38675a20.34914,20.34914 0 0 0 -20.34913,20.34914l0,483.29194a20.34914,20.34914 0 0 0 20.34913,20.34913l838.38433,0a20.34914,20.34914 0 0 0 20.34913,-20.34913l0,-483.29194a20.34914,20.34914 0 0 0 -20.34913,-20.34914l-838.38433,0z"/>
      <path stroke="null" id="svg_2" p-id="7402" fill="currentColor" d="m636.9279,826.17485l-352.04003,0a40.69827,40.69827 0 0 1 0,-81.39654l352.04003,0a40.69827,40.69827 0 0 1 0,81.39654zm-474.13483,-81.39654a40.69827,40.69827 0 1 0 40.69827,40.69827a40.69827,40.69827 0 0 0 -40.69827,-40.69827zm238.08487,-360.17967a40.69827,40.69827 0 1 0 40.69827,40.69827a40.69827,40.69827 0 0 0 -40.69827,-40.69827zm120.05989,0a40.69827,40.69827 0 1 0 40.69827,40.69827a40.69827,40.69827 0 0 0 -40.69827,-40.69827zm119.04244,0a40.69827,40.69827 0 1 0 40.69827,40.69827a40.69827,40.69827 0 0 0 -40.69827,-40.69827zm119.04244,0a40.69827,40.69827 0 1 0 40.69827,40.69827a40.69827,40.69827 0 0 0 -40.69827,-40.69827zm119.04243,0a40.69827,40.69827 0 1 0 40.69827,40.69827a40.69827,40.69827 0 0 0 -40.69827,-40.69827zm-715.27207,122.09481a40.69827,40.69827 0 1 0 40.69827,40.69827a40.69827,40.69827 0 0 0 -40.69827,-40.69827zm119.04244,0a40.69827,40.69827 0 1 0 40.69827,40.69827a40.69827,40.69827 0 0 0 -40.69827,-40.69827zm119.04243,0a40.69827,40.69827 0 1 0 40.69827,40.69827a40.69827,40.69827 0 0 0 -40.69827,-40.69827zm120.05989,0a40.69827,40.69827 0 1 0 40.69827,40.69827a40.69827,40.69827 0 0 0 -40.69827,-40.69827zm119.04244,0a40.69827,40.69827 0 1 0 40.69827,40.69827a40.69827,40.69827 0 0 0 -40.69827,-40.69827zm119.04244,0a40.69827,40.69827 0 1 0 40.69827,40.69827a40.69827,40.69827 0 0 0 -40.69827,-40.69827zm0,238.08487a40.69827,40.69827 0 1 0 40.69827,40.69827a40.69827,40.69827 0 0 0 -40.69827,-40.69827zm-596.22964,-115.99006a40.69827,40.69827 0 1 0 40.69827,40.69827a40.69827,40.69827 0 0 0 -40.69827,-40.69827zm119.04244,0a40.69827,40.69827 0 1 0 40.69827,40.69827a40.69827,40.69827 0 0 0 -40.69827,-40.69827zm119.04243,0a40.69827,40.69827 0 1 0 40.69827,40.69827a40.69827,40.69827 0 0 0 -40.69827,-40.69827zm120.05989,0a40.69827,40.69827 0 1 0 40.69827,40.69827a40.69827,40.69827 0 0 0 -40.69827,-40.69827zm358.14477,115.99006a40.69827,40.69827 0 1 0 40.69827,40.69827a40.69827,40.69827 0 0 0 -40.69827,-40.69827z"/>
      <path stroke="null" id="svg_3" p-id="7403" fill="currentColor" d="m817.01774,710.18478l-178.05492,0a40.69827,40.69827 0 0 1 0,-81.39653l178.05492,0a20.34914,20.34914 0 0 0 20.34914,-20.34914l0,-61.0474a40.69827,40.69827 0 0 1 81.39654,0l0,61.0474a101.74567,101.74567 0 0 1 -101.74568,101.74567zm-534.16477,-244.18961l-120.05989,0a40.69827,40.69827 0 0 1 0,-81.39653l120.05989,0a40.69827,40.69827 0 0 1 0,81.39653zm239.10233,-127.18208a40.69827,40.69827 0 0 1 -40.69827,-40.69827l0,-97.67585a101.74567,101.74567 0 0 1 101.74567,-101.74567l56.97758,0a20.34914,20.34914 0 0 0 20.34914,-20.34914l0,-37.6459a40.69827,40.69827 0 0 1 81.39653,0l0,37.6459a101.74567,101.74567 0 0 1 -101.74567,101.74568l-56.97758,0a20.34914,20.34914 0 0 0 -20.34914,20.34913l0,97.67585a40.69827,40.69827 0 0 1 -40.69827,40.69827z"/>
    </g>
    <path id="svg_4" p-id="17860" d="m911.49923,605.01505c28.62364,0 55.65893,5.48482 81.10565,16.45885c25.44268,10.97379 47.54924,25.92218 66.3116,44.84636c18.76651,18.92406 33.63656,41.0286 44.60798,66.31338c10.97201,25.28502 16.45683,52.23982 16.45683,80.86501c0,28.94276 -5.48482,56.05747 -16.45683,81.34285c-10.97142,25.28598 -25.84146,47.39016 -44.60798,66.31634c-18.76235,18.92263 -40.86891,33.79326 -66.3116,44.60619c-25.44672,10.81293 -52.48201,16.2194 -81.10565,16.2194c-28.9418,0 -56.05664,-5.40647 -81.34251,-16.2194c-25.28597,-10.81292 -47.38838,-25.68356 -66.31337,-44.60619c-18.92323,-18.9262 -33.79326,-41.03038 -44.60619,-66.31634c-10.81293,-25.28526 -16.22236,-52.40009 -16.22236,-81.34285c0,-28.62518 5.40943,-55.57998 16.22236,-80.86501c10.81293,-25.28467 25.68296,-47.38932 44.60619,-66.31338c18.925,-18.92406 41.0274,-33.87257 66.31337,-44.84636c25.28585,-10.97416 52.39821,-16.45885 81.34251,-16.45885l0,0zm-1.42997,57.25001c-20.67481,0 -40.07647,3.89517 -58.20309,11.68873c-18.12887,7.79034 -33.95234,18.44656 -47.47206,31.96534c-13.51557,13.51557 -24.17168,29.33987 -31.96202,47.46851c-7.7945,18.129 -11.68849,37.52875 -11.68849,58.20332c0,15.90479 2.2242,30.77305 6.67617,44.60619c4.45435,13.83552 10.81708,26.79714 19.08409,38.88275l207.05446,-206.57602c-12.08619,-8.26902 -25.12677,-14.71012 -39.12137,-19.32117c-13.99235,-4.61307 -28.78296,-6.91763 -44.36769,-6.91763l0,0l0,-0.00001l0,-0.00001zm0,298.65155c20.35498,0 39.59803,-3.89636 57.72643,-11.6867c18.129,-7.79272 33.95412,-18.44834 47.4697,-31.96392c13.51616,-13.51973 24.17168,-29.3413 31.96439,-47.4697c7.79272,-18.129 11.69086,-37.53053 11.69086,-58.20546c0,-29.57814 -7.79451,-56.61249 -23.37757,-81.10209l-206.57768,206.57365c12.08561,7.63364 24.80694,13.51616 38.16806,17.65459c13.35636,4.13035 27.66854,6.19963 42.93581,6.19963l0,0z" fill="red"/>
  </g>
</svg>
