<svg t="1753175483410" class="icon" viewBox="0 0 1024 1024" version="1.1" xmlns="http://www.w3.org/2000/svg" p-id="9149">
  <path
    d="M1023.025667 845.514263A334.693396 334.693396 0 0 1 725.554559 1023.996928a334.693396 334.693396 0 0 1-297.419907-178.482665 332.594202 332.594202 0 0 1 193.535419-161.689114 375.294874 375.294874 0 0 0-130.04761-38.246286 330.955807 330.955807 0 0 1-26.419121 1.331196c-12.543962 0-24.934325-0.870397-37.119888-2.201593a380.210059 380.210059 0 0 0-352.613342 324.914225l-3.839989 20.223939c-2.969591 18.636744-15.359954 34.150298-35.942292 33.945499-19.558341-0.204799-35.327894-15.257554-35.327894-34.047898L0.001536 986.56984c0-6.297581 2.815992-16.947149 2.815992-16.947149 25.651123-168.652294 143.871568-307.199078 302.079093-364.286907-99.788501-55.398234-167.218698-160.665118-167.218698-281.599155 0-178.533864 146.63636-323.22463 327.525417-323.224631 180.889057 0 327.576617 144.690766 327.576618 323.173431 0 120.934037-67.481398 226.200921-167.116299 281.599155 42.598272 15.359954 82.124554 36.863889 117.913246 63.027011 121.958034 6.399981 226.81532 76.287771 279.448762 177.202668z m-309.042273-523.569629a249.85525 249.85525 0 0 0-249.95765-249.85525 249.85525 249.85525 0 0 0-249.95765 249.85525 249.85525 249.85525 0 0 0 249.95765 249.804051 249.85525 249.85525 0 0 0 249.95765-249.804051z m0.0512 416.510751c-68.351795 0-130.406009 39.423882-130.406009 39.423881s-62.566212 41.881474-84.018948 70.14379c21.503935 28.262315 50.175849 52.223843 83.967748 70.143789 42.495873 22.527932 91.647725 34.457497 142.028374 34.457497h0.1536a106.854079 106.854079 0 1 1-3.58399-213.759359c-2.815992-0.1024-5.222384-0.409599-8.140775-0.409598z m-24.063928 107.058878a35.686293 35.686293 0 1 0 71.372586 0 35.686293 35.686293 0 0 0-71.372586 0z m143.001171 0a107.007679 107.007679 0 0 1-106.49568 107.007679 303.615089 303.615089 0 0 0 141.106776-34.303897 254.975235 254.975235 0 0 0 84.070148-70.194989c-21.503935-28.262315-84.070148-70.14379-84.070148-70.14379s-44.287867-33.1775-131.276406-38.399884a106.70048 106.70048 0 0 1 96.66531 106.034881z"
    fill="currentColor" p-id="9150"></path>
</svg>
