<svg t="1737441226235" class="icon" viewBox="0 0 1024 1024" version="1.1" xmlns="http://www.w3.org/2000/svg"
     p-id="30920">
  <path
    d="M896 416h-96v480c0 35.2-28.8 64-64 64H288c-35.2 0-64-28.8-64-64V416H128c-35.2 0-64-28.8-64-64V128c0-35.2 28.8-64 64-64h768c35.2 0 64 28.8 64 64v224c0 35.2-28.8 64-64 64zM656 896h64c9.6 0 16-6.4 16-16V304c0-9.6-6.4-16-16-16h-64v608z m-368-16c0 9.6 6.4 16 16 16h288V288H304c-9.6 0-16 6.4-16 16v576zM896 144c0-9.6-6.4-16-16-16H144c-9.6 0-16 6.4-16 16v192c0 9.6 6.4 16 16 16h80v-64c0-35.2 28.8-64 64-64h448c35.2 0 64 28.8 64 64v64h80c9.6 0 16-6.4 16-16V144z m-64 64h-64c-17.6 0-32-14.4-32-32s14.4-32 32-32h64c17.6 0 32 14.4 32 32s-14.4 32-32 32zM384 640c17.6 0 32 14.4 32 32v128c0 17.6-14.4 32-32 32s-32-14.4-32-32v-128c0-17.6 14.4-32 32-32z"
    fill="currentColor" p-id="30921"></path>
</svg>
