<svg t="1737439374158" class="icon" viewBox="0 0 1024 1024" version="1.1" xmlns="http://www.w3.org/2000/svg" p-id="2115">
  <path
    d="M938.356364 295.563636l-46.545455-106.123636a173.149091 173.149091 0 0 0-155.927273-101.003636H301.149091a172.683636 172.683636 0 0 0-154.996364 101.003636l-46.545454 106.123636a146.152727 146.152727 0 0 0 13.963636 145.687273l284.392727 410.996364A145.687273 145.687273 0 0 0 512 913.687273a144.290909 144.290909 0 0 0 114.967273-59.112728l296.029091-410.996363a151.738182 151.738182 0 0 0 14.429091-148.014546z m-73.076364 105.658182l-296.029091 411.461818a70.749091 70.749091 0 0 1-56.32 27.927273 67.025455 67.025455 0 0 1-56.785454-30.254545L169.425455 401.221818A77.730909 77.730909 0 0 1 162.443636 325.818182l46.545455-105.658182a100.538182 100.538182 0 0 1 93.090909-58.647273h434.734545a100.538182 100.538182 0 0 1 93.09091 58.647273l46.545454 105.658182a83.316364 83.316364 0 0 1-9.309091 77.730909z m0 0"
    fill="currentColor" p-id="2116"></path>
  <path
    d="M660.945455 331.403636H366.778182a35.374545 35.374545 0 0 0 0 70.283637h294.167273a35.374545 35.374545 0 0 0 0-70.283637z m0 0"
    fill="currentColor" p-id="2117"></path>
</svg>
