<svg t="1737440627569" class="icon" viewBox="0 0 1024 1024" version="1.1" xmlns="http://www.w3.org/2000/svg"
     p-id="19418">
  <path
    d="M618.666667 806.4a47.146667 47.146667 0 0 1-21.333334-5.333333l-80-42.666667-80 42.666667a47.573333 47.573333 0 0 1-68.906666-50.133334l14.08-89.6-64-64a47.36 47.36 0 0 1-11.946667-48.64 46.933333 46.933333 0 0 1 38.186667-32.213333l89.6-13.013333 39.893333-81.066667a46.933333 46.933333 0 0 1 42.666667-26.453333 46.933333 46.933333 0 0 1 42.666666 26.453333l39.893334 81.066667 89.6 13.013333A47.36 47.36 0 0 1 715.306667 597.333333l-64 64 15.146666 88.96a46.933333 46.933333 0 0 1-18.773333 46.506667 47.786667 47.786667 0 0 1-29.013333 9.6zM386.56 576l46.933333 45.653333a47.146667 47.146667 0 0 1 13.653334 42.666667l-11.093334 64 58.026667-30.506667a47.573333 47.573333 0 0 1 44.16 0L597.333333 728.746667l-11.093333-64a48 48 0 0 1 13.653333-42.666667L645.76 576l-64-9.386667a48.213333 48.213333 0 0 1-35.84-26.026666l-29.653333-58.24-29.013334 58.666666a47.786667 47.786667 0 0 1-35.84 26.026667z m2.346667 91.52z m-4.906667-14.293333z m117.333333-201.173334z"
    fill="currentColor" p-id="19419"></path>
  <path
    d="M793.6 976.853333H230.613333a132.48 132.48 0 0 1-132.266666-140.373333L128 356.906667a132.693333 132.693333 0 0 1 132.266667-124.586667h504.106666A132.48 132.48 0 0 1 896 356.693333l29.653333 479.573334a132.053333 132.053333 0 0 1-132.053333 140.586666z m-534.4-680.533333a68.693333 68.693333 0 0 0-68.266667 64l-28.586666 480a67.413333 67.413333 0 0 0 18.346666 50.986667 68.48 68.48 0 0 0 49.92 21.333333H793.6a68.693333 68.693333 0 0 0 68.266667-72.533333L832 360.533333a68.48 68.48 0 0 0-68.266667-64z"
    fill="currentColor" p-id="19420"></path>
  <path
    d="M669.226667 296.32a32 32 0 0 1-32-32v-22.4a125.226667 125.226667 0 1 0-250.24 0v22.4a32 32 0 0 1-64 0v-22.4a189.226667 189.226667 0 1 1 378.24 0v22.4a32 32 0 0 1-32 32z"
    fill="currentColor" p-id="19421"></path>
</svg>
