<svg t="1737022128188" class="icon" viewBox="0 0 1024 1024" version="1.1" xmlns="http://www.w3.org/2000/svg"
     p-id="77303">
  <path
    d="M333.653333 980.992a157.013333 157.013333 0 0 1-74.410666-17.066667 104.277333 104.277333 0 0 1-55.296-85.333333c-7.338667-68.266667 29.696-94.037333 62.293333-116.565333a155.136 155.136 0 0 0 63.829333-69.632c12.117333-27.818667-1.536-46.592-37.888-85.333334s-85.333333-92.842667-66.218666-177.664c13.141333-56.661333 55.808-97.28 119.466666-114.176 104.618667-27.306667 237.909333 15.872 317.098667 102.4 48.981333 53.76 68.266667 135.338667 52.224 223.914667-21.162667 123.733333-106.666667 234.666667-228.010667 297.130667a342.869333 342.869333 0 0 1-153.088 42.325333zM412.842667 358.4a211.797333 211.797333 0 0 0-53.589334 6.314667 106.325333 106.325333 0 0 0-83.456 76.288c-13.482667 58.368 19.285333 93.696 53.930667 131.242666s73.728 79.701333 47.445333 140.970667a204.8 204.8 0 0 1-81.749333 91.306667c-29.696 20.650667-44.714667 30.890667-40.618667 69.12a54.272 54.272 0 0 0 28.672 45.397333c38.229333 20.48 110.421333 10.069333 179.712-25.770667 107.349333-55.466667 182.784-153.6 202.069334-260.437333 12.8-71.68-2.048-139.093333-39.765334-180.394667A293.888 293.888 0 0 0 412.842667 358.4zM678.229333 379.392a58.026667 58.026667 0 0 1-38.4-13.482667c-30.037333-25.258667-27.648-75.946667 5.632-115.712a112.128 112.128 0 0 1 52.736-35.84 64 64 0 0 1 60.245334 10.24c30.037333 25.258667 27.648 76.117333-5.632 115.712a101.205333 101.205333 0 0 1-74.581334 39.082667z m41.813334-117.077333a25.258667 25.258667 0 0 0-7.509334 1.194666 60.757333 60.757333 0 0 0-27.818666 19.626667c-17.066667 19.626667-17.066667 39.424-11.946667 43.690667s24.405333 0 40.789333-19.456 17.066667-39.253333 11.946667-43.52a8.362667 8.362667 0 0 0-5.461333-1.536zM555.52 301.909333a56.661333 56.661333 0 0 1-24.064-5.290666c-35.498667-17.066667-46.250667-66.218667-24.405333-113.152a110.592 110.592 0 0 1 41.642666-48.298667 64.170667 64.170667 0 0 1 60.757334-5.802667 64.170667 64.170667 0 0 1 34.133333 50.346667 111.957333 111.957333 0 0 1-10.24 62.976 93.696 93.696 0 0 1-77.824 59.221333z m29.866667-126.634666a21.845333 21.845333 0 0 0-10.069334 3.584A61.610667 61.610667 0 0 0 553.472 204.8c-10.752 23.04-6.314667 42.325333 0 45.226667s23.722667-6.314667 34.133333-29.354667a61.269333 61.269333 0 0 0 5.973334-34.133333 15.701333 15.701333 0 0 0-5.632-11.605334 5.632 5.632 0 0 0-2.56 0.341334zM415.744 275.968h-2.218667c-39.253333-1.536-68.266667-43.349333-66.218666-94.890667s34.133333-90.965333 73.728-89.429333a63.658667 63.658667 0 0 1 51.2 32.938667 111.445333 111.445333 0 0 1 14.848 61.952c-1.877333 50.517333-33.109333 89.429333-71.338667 89.429333z m2.901333-133.461333c-6.656 0-19.285333 15.189333-20.309333 40.448s10.581333 41.472 17.066667 41.642666c6.656 0 19.285333-15.018667 20.309333-40.277333a61.610667 61.610667 0 0 0-7.338667-34.133333c-3.072-4.949333-6.997333-8.362667-9.898666-8.533334zM241.493333 267.434667a91.306667 91.306667 0 0 1-49.664-15.530667 131.754667 131.754667 0 0 1-50.005333-65.194667 131.413333 131.413333 0 0 1-3.584-81.92 85.333333 85.333333 0 0 1 51.2-57.173333 85.333333 85.333333 0 0 1 75.946667 10.922667 131.242667 131.242667 0 0 1 50.005333 65.024c21.504 59.392 0 121.856-47.616 139.264a76.117333 76.117333 0 0 1-26.282667 4.608z m-25.6-173.226667a23.210667 23.210667 0 0 0-8.874666 1.536A35.669333 35.669333 0 0 0 187.733333 119.466667a80.725333 80.725333 0 0 0 2.730667 49.664 80.213333 80.213333 0 0 0 29.866667 39.594666 35.157333 35.157333 0 0 0 30.378666 5.802667c20.992-7.68 28.672-41.301333 17.066667-73.557333a80.725333 80.725333 0 0 0-29.866667-39.765334 40.618667 40.618667 0 0 0-22.016-6.997333zM783.018667 489.472a63.317333 63.317333 0 0 1-53.248-25.088c-22.869333-32.085333-7.68-80.554667 34.133333-110.592a112.981333 112.981333 0 0 1 59.904-21.504 65.024 65.024 0 0 1 55.808 25.088 64 64 0 0 1 5.461333 60.928A117.930667 117.930667 0 0 1 785.066667 489.472z m43.861333-105.984h-1.024a61.952 61.952 0 0 0-31.914667 12.117333c-20.650667 14.677333-26.282667 34.133333-22.528 39.082667a15.189333 15.189333 0 0 0 12.458667 3.584 66.56 66.56 0 0 0 53.76-38.229333 16.042667 16.042667 0 0 0 0.853333-12.970667 15.36 15.36 0 0 0-11.605333-3.584z"
    fill="currentColor" p-id="77304"></path>
</svg>
