<svg t="1744013877421" class="icon" viewBox="0 0 1024 1024" version="1.1" xmlns="http://www.w3.org/2000/svg" p-id="8504">
  <path
    d="M767.772444 511.829333H256a36.579556 36.579556 0 0 0 0 73.159111h511.829333a36.579556 36.579556 0 0 0 0-73.159111z m0-219.363555H256a36.579556 36.579556 0 0 0 0 73.159111h511.829333a36.579556 36.579556 0 0 0 0-73.159111z m182.840889 438.784c0 40.391111-32.768 73.102222-73.159111 73.102222H511.829333a73.386667 73.386667 0 0 0-73.102222 73.102222v34.360889l-96.938667-88.405333a73.272889 73.272889 0 0 0-49.322666-19.057778h-146.204445c-40.391111 0-73.159111-32.768-73.159111-73.102222V146.204444c0-40.391111 32.768-73.159111 73.159111-73.159111h731.192889c40.391111 0 73.159111 32.768 73.159111 73.159111v584.988445zM877.454222 0H146.261333A146.659556 146.659556 0 0 0 0 146.204444v585.045334a146.659556 146.659556 0 0 0 146.204444 146.204444h146.261334l150.926222 137.671111a42.609778 42.609778 0 0 0 68.437333-34.247111v-103.424h365.624889a146.659556 146.659556 0 0 0 146.261334-146.204444V146.204444A146.659556 146.659556 0 0 0 877.511111 0z"
    fill="currentColor" p-id="8505"></path>
</svg>
