<svg t="1741859185540" class="icon" viewBox="0 0 1026 1024" version="1.1" xmlns="http://www.w3.org/2000/svg" p-id="2518">
  <path
    d="M157.796 437.638c-13.035 0-23.699 10.664-23.699 23.699v1.366c0 13.035 10.664 23.699 23.699 23.699h180.629c13.035 0 23.699-10.664 23.699-23.699v-1.366c0-13.035-10.664-23.699-23.699-23.699H157.796zM561.388 286.468c0-13.411-10.972-24.382-24.382-24.382H158.478c-13.41 0-24.382 10.972-24.382 24.382 0 13.41 10.972 24.382 24.382 24.382H537.006c13.411 0 24.382-10.973 24.382-24.382zM334.495 637.573c0-13.41-10.972-24.382-24.382-24.382H156.041c-13.41 0-24.382 10.972-24.382 24.382 0 13.41 10.972 24.382 24.382 24.382h154.072c13.41 0 24.382-10.972 24.382-24.382z"
    fill="currentColor" p-id="2519"></path>
  <path
    d="M121.907 865.537c-40.332 0-73.146-32.811-73.146-73.146V204.789c0-40.333 32.813-73.146 73.146-73.146h70.706v9.753c0 15.421 12.618 28.039 28.039 28.039 15.422 0 28.039-12.618 28.039-28.039v-9.753h241.38v9.753c0 15.421 12.618 28.039 28.039 28.039 15.422 0 28.039-12.618 28.039-28.039v-9.753h90.213c40.334 0 73.146 32.813 73.146 73.146v70.655c0 13.465 10.915 24.382 24.382 24.382 13.467 0 24.382-10.917 24.382-24.382v-70.655c0-67.221-54.688-121.909-121.909-121.909h-90.213v-2.438c0-15.422-12.618-28.039-28.039-28.039-15.421 0-28.039 12.618-28.039 28.039v2.438h-241.38v-2.438c0-15.422-12.618-28.039-28.039-28.039-15.421 0-28.039 12.618-28.039 28.039v2.438h-70.706c-67.221 0-121.909 54.688-121.909 121.909v587.602c0 67.221 54.688 121.909 121.909 121.909 13.465 0 24.382-10.915 24.382-24.382 0-13.467-10.918-24.381-24.383-24.381z"
    fill="currentColor" p-id="2520"></path>
  <path
    d="M876.793 619.297c20.649-24.947 32.286-56.514 32.286-89.889 0-77.841-63.327-141.168-141.168-141.168-3.165 0-6.097-0.024-8.828-0.048-20.217-0.181-34.071 0.319-49.448 9.291-30.783-46.292-83.395-76.878-143.036-76.878-94.663 0-171.676 77.012-171.676 171.675 0 45.419 18.292 88.716 49.51 120.492-109.878 50.21-181.145 159.24-181.145 283.077 0 18.713 1.757 37.764 5.223 56.621 2.038 11.079 11.698 19.126 22.964 19.126h566.729c11.266 0 20.926-8.047 22.964-19.126 2.293-12.476 3.764-25.031 4.546-37.522h113.827c11.266 0 20.929-8.047 22.964-19.126 2.806-15.274 4.227-30.698 4.227-45.848 0-101.055-59.955-190.837-149.939-230.677z m-38.729 305.605h-526.45a262.83 262.83 0 0 1-1.631-29.05c0-117.571 75.548-219.445 187.996-253.495a23.345 23.345 0 0 0 16.412-19.55 23.344 23.344 0 0 0-11.293-22.892c-37.922-22.425-61.479-63.671-61.479-107.633 0-68.915 56.065-124.98 124.98-124.98s124.98 56.065 124.98 124.98c0 42.516-21.355 81.742-57.122 104.924a23.346 23.346 0 0 0-10.347 23.337 23.354 23.354 0 0 0 17.203 18.863c116.804 30.182 198.383 135.64 198.383 256.446a263.334 263.334 0 0 1-1.632 29.05z m141.135-56.647H885.126c-10.252-116.112-84.533-216.529-191.457-260.518 28.437-31.202 44.604-72.077 44.604-115.455 0-18.34-2.921-36.004-8.271-52.587 6.664-4.989 11.566-4.963 28.679-4.809 2.857 0.024 5.92 0.051 9.228 0.051 52.093 0 94.473 42.38 94.473 94.473 0 32.136-16.146 61.788-43.187 79.32a23.354 23.354 0 0 0-10.344 23.337 23.354 23.354 0 0 0 17.203 18.863c90.663 23.428 153.982 105.281 153.982 199.047a200.95 200.95 0 0 1-0.837 18.278z"
    fill="currentColor" p-id="2521"></path>
</svg>
