<svg t="1741859339097" class="icon" viewBox="0 0 1024 1024" version="1.1" xmlns="http://www.w3.org/2000/svg" p-id="4714">
  <path
    d="M887.3984 149.4016H753.664a28.16 28.16 0 0 0 0 56.4224h105.5744v119.1936H166.5024V205.824h105.472a28.16 28.16 0 0 0 0-56.4224H138.24a27.8528 27.8528 0 0 0-28.16 28.16v720.896a27.8528 27.8528 0 0 0 28.16 28.16h749.1584a27.8528 27.8528 0 0 0 28.16-28.16v-720.896a27.8528 27.8528 0 0 0-28.16-28.16z m-720.896 231.936h692.736V870.4H166.5024z"
    fill="currentColor" p-id="4715"></path>
  <path
    d="M662.6304 245.76a27.8528 27.8528 0 0 0 28.16-28.16V133.12A28.16 28.16 0 1 0 634.88 133.12v84.0704A27.8528 27.8528 0 0 0 662.6304 245.76zM512.8192 245.76a27.8528 27.8528 0 0 0 28.16-28.16V133.12a28.16 28.16 0 1 0-56.4224 0v84.0704A27.8528 27.8528 0 0 0 512.8192 245.76zM360.6528 245.76A27.8528 27.8528 0 0 0 389.12 217.3952V133.12a28.16 28.16 0 1 0-56.4224 0v84.0704A27.8528 27.8528 0 0 0 360.6528 245.76zM300.544 742.912a20.48 20.48 0 0 1-15.1552-34.0992l135.7824-154.2144a20.48 20.48 0 0 1 13.9264-6.9632 21.504 21.504 0 0 1 14.7456 4.9152l111.616 98.9184L702.1568 501.76a20.48 20.48 0 0 1 30.0032 28.672l-154.3168 163.84a20.48 20.48 0 0 1-28.672 1.2288l-110.7968-98.6112-122.2656 138.6496a20.48 20.48 0 0 1-15.5648 7.3728zM310.9888 524.3904a2.6624 2.6624 0 0 0 1.4336-1.8432 23.8592 23.8592 0 0 0 0-5.3248v-14.2336H245.76a66.7648 66.7648 0 0 1-3.2768 16.384 90.3168 90.3168 0 0 1-8.0896 17.1008 8.8064 8.8064 0 0 1-5.5296 4.5056 7.168 7.168 0 0 1-6.2464-1.2288 7.9872 7.9872 0 0 1-2.8672-4.608 9.5232 9.5232 0 0 1 2.048-7.0656 71.68 71.68 0 0 0 4.4032-7.9872 44.8512 44.8512 0 0 0 3.1744-8.0896 77.2096 77.2096 0 0 0 1.6384-10.24q0.512-5.632 0.512-13.0048V440.32a15.872 15.872 0 0 1 3.072-10.24 14.336 14.336 0 0 1 11.1616-3.3792h68.096a15.7696 15.7696 0 0 1 10.8544 2.9696A15.0528 15.0528 0 0 1 327.68 440.32v77.5168a23.9616 23.9616 0 0 1-4.4032 15.872 18.5344 18.5344 0 0 1-13.9264 5.4272 62.5664 62.5664 0 0 1-9.216-0.7168 97.8944 97.8944 0 0 1-11.1616-2.4576 8.0896 8.0896 0 0 1-4.8128-3.7888A7.3728 7.3728 0 0 1 286.72 522.24a10.24 10.24 0 0 1 6.8608 0l8.9088 2.048a29.7984 29.7984 0 0 0 5.632 0.7168 6.656 6.656 0 0 0 2.6624 0z m-64.6144-65.9456h66.4576v-13.9264a2.56 2.56 0 0 0-1.1264-2.3552 5.632 5.632 0 0 0-2.9696-0.7168h-59.5968c-1.2288 0-2.048 0-2.3552 0.9216a7.8848 7.8848 0 0 0 0 3.3792z m0 30.1056h66.4576v-15.5648h-66.56z"
    fill="currentColor" p-id="4716"></path>
</svg>
