<svg t="1741859378199" class="icon" viewBox="0 0 1024 1024" version="1.1" xmlns="http://www.w3.org/2000/svg" p-id="5725">
  <path
    d="M910.336 66.56H113.664C56.32 66.56 10.24 113.152 9.728 169.984v540.16c0 57.344 46.592 103.424 103.424 103.424H476.16v72.704H184.32V957.44h654.848v-71.68h-291.84v-72.704h363.008c57.344 0 103.424-46.08 103.424-103.424V169.984C1013.76 112.64 967.168 66.56 910.336 66.56z m32.768 643.072c0 17.92-14.336 32.256-32.256 32.256H113.664c-17.92 0-32.256-14.336-32.256-32.256V169.984c0-17.92 14.336-32.256 32.256-32.256h796.672c17.92 0 32.256 14.336 32.768 32.256v539.648z"
    fill="currentColor"></path>
  <path
    d="M510.976 235.008c-33.792 0-61.44 27.648-61.44 61.44v286.72c0 33.792 27.648 61.44 61.44 61.44s61.44-27.648 61.44-61.44v-286.72c0-33.792-27.136-61.44-61.44-61.44zM264.704 337.408c-33.792 0-61.44 27.648-61.44 61.44v184.32c0 33.792 27.648 61.44 61.44 61.44s61.44-27.648 61.44-61.44v-184.32c0-33.792-27.648-61.44-61.44-61.44zM757.76 388.608c-33.792 0-61.44 27.648-61.44 61.44v133.12c0 33.792 27.648 61.44 61.44 61.44s61.44-27.648 61.44-61.44v-133.12c0-33.792-27.648-61.44-61.44-61.44z"
    fill="currentColor"></path>
</svg>
