<svg t="1741859268477" class="icon" viewBox="0 0 1024 1024" version="1.1" xmlns="http://www.w3.org/2000/svg" p-id="3516">
  <path
    d="M906.5472 149.4016H772.8128a28.16 28.16 0 0 0 0 56.4224h105.5744v119.1936H185.5488V205.824h105.5744a28.16 28.16 0 0 0 0-56.4224H157.3888a27.8528 27.8528 0 0 0-28.16 28.16v720.896a27.8528 27.8528 0 0 0 28.16 28.16h749.1584a27.8528 27.8528 0 0 0 28.16-28.16v-720.896a27.8528 27.8528 0 0 0-28.16-28.16zM185.5488 381.3376h692.8384V870.4H185.5488z"
    fill="currentColor" p-id="3517"></path>
  <path
    d="M681.7792 245.76a27.8528 27.8528 0 0 0 28.16-28.16V133.12a28.16 28.16 0 1 0-56.4224 0v84.0704A27.8528 27.8528 0 0 0 681.7792 245.76zM532.48 245.76a27.8528 27.8528 0 0 0 28.16-28.16V133.12a28.16 28.16 0 1 0-56.4224 0v84.0704A27.8528 27.8528 0 0 0 532.48 245.76zM379.8016 245.76a27.8528 27.8528 0 0 0 28.16-28.16V133.12a28.16 28.16 0 1 0-56.4224 0v84.0704A27.8528 27.8528 0 0 0 379.8016 245.76zM319.6928 742.912a20.48 20.48 0 0 1-15.1552-34.0992L440.32 554.5984a20.48 20.48 0 0 1 13.9264-6.9632 21.504 21.504 0 0 1 14.7456 5.3248l111.616 98.9184L721.3056 501.76a20.48 20.48 0 0 1 30.0032 28.2624l-154.3168 163.84a20.48 20.48 0 0 1-28.672 1.2288l-110.7968-98.2016-122.2656 138.6496a20.48 20.48 0 0 1-15.5648 7.3728zM340.3776 522.24a13.2096 13.2096 0 0 1-4.1984 10.24 15.2576 15.2576 0 0 1-10.24 3.7888h-60.8256a15.0528 15.0528 0 0 1-10.24-3.7888 13.312 13.312 0 0 1-4.096-10.24v-77.4144a13.1072 13.1072 0 0 1 4.096-10.24 15.1552 15.1552 0 0 1 10.24-3.6864h60.5184a14.9504 14.9504 0 0 1 11.1616 3.6864 14.1312 14.1312 0 0 1 3.584 10.24z m-14.7456-71.68a5.9392 5.9392 0 0 0-0.7168-3.4816 3.584 3.584 0 0 0-2.7648-0.8192H268.288c-1.6384 0-2.56 0-2.8672 1.024a6.7584 6.7584 0 0 0 0 2.3552v25.088h60.2112z m0 39.2192h-60.5184v27.4432a9.3184 9.3184 0 0 0 0 3.584q0 0.8192 2.8672 0.8192h53.8624c1.8432 0 2.9696-0.512 3.1744-1.6384a19.3536 19.3536 0 0 0 0-3.584z"
    fill="currentColor" p-id="3518"></path>
</svg>
