<svg t="1754461727115" class="icon" viewBox="0 0 1024 1024" version="1.1" xmlns="http://www.w3.org/2000/svg" p-id="8739">
  <path
    d="M225.834667 311.168a42.666667 42.666667 0 0 1 63.914666 56.32l-3.584 4.010667-140.544 140.629333 140.288 140.373333a42.666667 42.666667 0 0 1 3.541334 56.32l-3.541334 4.010667a42.666667 42.666667 0 0 1-56.32 3.541333l-4.053333-3.541333-170.368-170.538667a42.666667 42.666667 0 0 1-3.541333-56.32l3.541333-4.010666 170.666667-170.794667zM738.133333 311.168a42.666667 42.666667 0 0 1 56.32-3.541333l4.010667 3.541333 170.368 170.538667a42.666667 42.666667 0 0 1 3.541333 56.32l-3.541333 4.010666-170.666667 170.794667a42.666667 42.666667 0 0 1-63.914666-56.32l3.584-4.010667 140.501333-140.672-140.245333-140.373333a42.666667 42.666667 0 0 1-3.541334-56.32l3.541334-3.968z"
    fill="currentColor" p-id="8740"></path>
  <path
    d="M938.666667 469.333333a42.666667 42.666667 0 0 1 4.992 85.034667L938.666667 554.666667H85.333333a42.666667 42.666667 0 0 1-4.992-85.034667L85.333333 469.333333h853.333334z"
    fill="currentColor" p-id="8741"></path>
</svg>
