<svg t="1741858091892" class="icon" viewBox="0 0 1024 1024" version="1.1" xmlns="http://www.w3.org/2000/svg" p-id="5020">
  <path
    d="M491.2 37.6c11.8-3.6 24.4-4 36.4-1.3l5.1 1.3 358.4 108.8c28.6 8.7 48.8 34.2 50.8 64V606c0 176.4-140 301.9-408.8 377.6l-21.1 5.8-9.4-2.6C230 912.5 86.2 788.4 82.2 613.5V214.7c0-29.9 18.6-56.7 46.6-67.1l4.2-1.4L491.2 37.6z m20.8 68.5L153.6 214.9V606c0 133.1 108 234.1 334 302.1l11 3.3 13.2 3.8 13.2-3.8c226.1-65.8 337.8-163.7 344.7-292.5V214.7L512 106.1z m50.7 204l66.9 172.8h73.3v71.6H580.5l-23.4-60.2-88.8 194.2-80.1-132h-67.5v-71.7h107.8l30.8 50.8 103.1-225.5h0.3z"
    fill="currentColor"></path>
</svg>
