<svg t="1742805538518" class="icon" viewBox="0 0 1024 1024" version="1.1" xmlns="http://www.w3.org/2000/svg"
     p-id="14771">
  <path
    d="M550.7 878L481 839.8l-30.6-16.7-30.7 16.7-87 47.3-86.8-47.3-30.6-16.7-30.6 16.7-22.7 12.4V160c0-17.7 14.3-32 32-32h512c17.7 0 32 14.3 32 32v480.3c0 17.7 14.3 32 32 32s32-14.3 32-32V128c0-35.3-26.3-64-58.7-64H156.7C124.3 64 98 92.7 98 128v832l117.3-64 117.4 64 117.6-64 69.7 38.1c21.3 11.7 47.3-3.8 47.3-28.1 0.1-11.6-6.3-22.4-16.6-28z"
    fill="currentColor"></path>
  <path
    d="M362.5 512c17.7 0 32-14.3 32-32v-64h64c17.7 0 32-14.3 32-32s-14.3-32-32-32h-64v-64c0-17.7-14.3-32-32-32s-32 14.3-32 32v64h-64c-17.7 0-32 14.3-32 32s14.3 32 32 32h64v64c0 17.7 14.3 32 32 32zM474.9 640h145c17.7 0 32-14.3 32-32s-14.3-32-32-32h-145c-17.7 0-32 14.3-32 32s14.3 32 32 32zM916.6 691.8c-12.5-12.5-32.8-12.5-45.3 0L713 850.2 662.8 800c-12.5-12.5-32.8-12.5-45.3 0s-12.5 32.8 0 45.3l72.8 72.8c3.5 3.5 7.6 6 12 7.6 11.2 3.9 24.2 1.4 33.2-7.6l181-181c12.6-12.6 12.6-32.8 0.1-45.3z"
    fill="currentColor"></path>
</svg>
