<svg t="1740385181746" class="icon" viewBox="0 0 1024 1024" version="1.1" xmlns="http://www.w3.org/2000/svg" p-id="9679">
  <path
    d="M170.924 890.482c-41.86 0-75.924-34.064-75.924-75.924V209.442c0-36.523 30.494-75.924 79.713-75.924h678.326c42.589 0 75.961 33.353 75.961 75.924v605.116c0 37.325-28.417 75.924-75.961 75.924H170.924z m-0.947-76.142l682.37 0.747 0.729-385.924H646.215l-0.729 130.007c0 12.842-6.74 25.011-17.56 31.75-6.521 3.625-13.152 5.465-19.673 5.465-5.938 0-11.44-1.312-16.832-4.008l-79.094-39.784-79.713 39.765c-5.501 2.732-11.257 4.117-17.159 4.117a36.31 36.31 0 0 1-19.345-5.556c-10.857-6.758-17.633-18.926-17.633-31.75V429.163h-208.5V814.34zM512 473.81c5.866 0 11.367 1.312 16.832 4.026l42.188 20.566V209.66H452.98v288.067l42.188-19.892c5.465-2.713 10.966-4.025 16.832-4.025z m133.487-120.316h207.589V209.66H645.487v143.834z m-475.51 0h208.5V209.66h-208.5v143.834z"
    fill="currentColor" p-id="9680"></path>
</svg>
