<svg t="1740473262788" class="icon" viewBox="0 0 1024 1024" version="1.1" xmlns="http://www.w3.org/2000/svg" p-id="7891">
  <path
    d="M395.5 928.5H270c-60.7 0-110-49.3-110-110v-643c0-60.7 49.3-110 110-110h504c60.7 0 110 49.3 110 110v217c0 16.6-13.4 30-30 30s-30-13.4-30-30v-217c0-27.6-22.4-50-50-50H270c-27.6 0-50 22.4-50 50v643.1c0 27.6 22.4 50 50 50h125.5c16.6 0 30 13.4 30 30s-13.4 29.9-30 29.9z"
    p-id="7892" fill="currentColor"></path>
  <path
    d="M680.6 316H289c-16.6 0-30-13.4-30-30s13.4-30 30-30h391.5c16.6 0 30 13.4 30 30s-13.4 30-29.9 30zM580 458.6H289c-16.6 0-30-13.4-30-30s13.4-30 30-30h291c16.6 0 30 13.4 30 30s-13.4 30-30 30zM512.1 615.8H289c-16.6 0-30-13.4-30-30s13.4-30 30-30h223.1c16.6 0 30 13.4 30 30s-13.4 30-30 30zM735.6 959.9c-9.2 0-17.8-4.2-23.5-11.4L588.4 792.2c-7.1-9-8.5-21.3-3.5-31.7 5-10.4 15.5-16.9 27-16.9h41.5V559.8c0-16.6 13.4-30 30-30h103.1c16.6 0 30 13.4 30 30v183.8h42.7c11.5 0 22 6.6 27 16.9 5 10.4 3.7 22.7-3.5 31.7L759.1 948.5c-5.7 7.2-14.4 11.4-23.5 11.4z m-61.7-156.3l61.6 77.9 61.6-77.9h-10.7c-16.6 0-30-13.4-30-30V589.8h-43.1v183.8c0 16.6-13.4 30-30 30h-9.4z"
    p-id="7893" fill="currentColor"></path>
</svg>
