<svg t="1736821649910" class="icon" viewBox="0 0 1024 1024" version="1.1" xmlns="http://www.w3.org/2000/svg" p-id="4172">
  <path
    d="M841.142857 51.2c69.485714 0 128 54.857143 131.657143 124.342857V841.142857c0 69.485714-54.857143 128-124.342857 131.657143H182.857143c-69.485714 0-128-54.857143-131.657143-124.342857V182.857143c0-69.485714 54.857143-128 124.342857-131.657143H841.142857z m0 73.142857H182.857143c-29.257143 0-54.857143 21.942857-58.514286 51.2v661.942857c0 29.257143 21.942857 54.857143 54.857143 58.514286H841.142857c29.257143 0 54.857143-21.942857 58.514286-54.857143V182.857143c0-29.257143-21.942857-54.857143-54.857143-58.514286H841.142857z"
    fill="currentColor" p-id="4173"></path>
  <path
    d="M837.485714 757.028571c0 18.285714-14.628571 32.914286-32.914285 32.914286H219.428571c-18.285714 0-32.914286-14.628571-32.914285-32.914286s14.628571-32.914286 32.914285-32.914285h585.142858c18.285714 0 32.914286 14.628571 32.914285 32.914285zM248.685714 610.742857H193.828571V263.314286H256L354.742857 475.428571c3.657143 7.314286 7.314286 18.285714 14.628572 32.914286V263.314286h54.857142v343.771428H362.057143l-102.4-215.771428c-3.657143-7.314286-7.314286-18.285714-14.628572-29.257143v58.514286l3.657143 190.171428zM588.8 259.657143c84.114286 7.314286 124.342857 65.828571 131.657143 179.2-3.657143 109.714286-47.542857 168.228571-131.657143 175.542857-80.457143-7.314286-124.342857-65.828571-128-175.542857 3.657143-113.371429 47.542857-175.542857 128-179.2z m0 69.485714c-43.885714 3.657143-65.828571 40.228571-65.828571 113.371429 3.657143 69.485714 25.6 106.057143 65.828571 109.714285 40.228571 0 62.171429-36.571429 65.828571-109.714285-3.657143-76.8-25.6-113.371429-65.828571-113.371429zM808.228571 610.742857h-62.171428v-76.8h62.171428z"
    fill="currentColor" p-id="4174"></path>
</svg>
