<svg t="1745310270368" class="icon" viewBox="0 0 1024 1024" version="1.1" xmlns="http://www.w3.org/2000/svg" p-id="2737">
  <path
    d="M778.489756 49.95122a128.774244 128.774244 0 0 1 128.774244 128.774243v679.036878a128.774244 128.774244 0 0 1-128.79922 128.774244H239.915707a128.774244 128.774244 0 0 1-128.774244-128.774244V178.725463A128.774244 128.774244 0 0 1 239.915707 49.95122H778.489756z m35.140683 339.018926l-165.912976 59.317074a140.537756 140.537756 0 0 1-276.979512 0l-165.912975-59.242147v468.717268c0 19.381073 15.734634 35.090732 35.140683 35.090732H778.489756a35.090732 35.090732 0 0 0 35.140683-35.090732v-468.792195z m-304.377756-11.239024a46.854244 46.854244 0 1 0 0 93.658537 46.854244 46.854244 0 0 0 0-93.658537z m269.237073-234.146342H239.915707a35.090732 35.090732 0 0 0-35.090731 35.115708L204.8 289.517268l182.49678 65.186342a140.437854 140.437854 0 0 1 121.905952-70.631025 140.437854 140.437854 0 0 1 121.905951 70.606049l182.49678-65.161366V178.725463a35.090732 35.090732 0 0 0-35.115707-35.090731V143.609756z"
    fill="currentColor" p-id="2738"></path>
</svg>
