<svg class="icon" viewBox="0 0 1024 1024" version="1.1" xmlns="http://www.w3.org/2000/svg"><path d="M866.090667 904.576l-179.2-179.2a4.266667 4.266667 0 0 1-4.266667-4.266667l-170.666667 170.666667a90.069333 90.069333 0 0 1-46.933333 17.066667 63.488 63.488 0 0 1-46.933333-17.066667l-4.266667-4.266667a330.752 330.752 0 0 1-64-298.666666l-119.466667-153.6a189.397333 189.397333 0 0 1-93.866666-29.866667 64.298667 64.298667 0 0 1-29.866667-46.933333 58.325333 58.325333 0 0 1 17.066667-51.2l183.253333-183.466667a62.165333 62.165333 0 0 1 89.6 0c4.266667 0 4.266667 4.48 8.533333 8.533333a187.050667 187.050667 0 0 1 29.866667 93.866667l153.6 119.466667a343.850667 343.850667 0 0 1 298.666667 64 58.538667 58.538667 0 0 1 25.6 46.933333 50.474667 50.474667 0 0 1-17.066667 46.933333l-170.666667 170.666667 4.266667 4.266667 179.2 179.2a33.621333 33.621333 0 0 1 0 46.933333 32.512 32.512 0 0 1-21.333333 8.533333 32.981333 32.981333 0 0 1-21.12-8.533333z" fill="currentColor"></path></svg>
