<svg t="1744696841562" class="icon" viewBox="0 0 1024 1024" version="1.1" xmlns="http://www.w3.org/2000/svg" p-id="2692">
  <path
    d="M512 32.512a479.488 479.488 0 1 1 0 958.976A479.488 479.488 0 0 1 512 32.512z m0 64a415.488 415.488 0 1 0 0 830.976A415.488 415.488 0 0 0 512 96.512z"
    fill="currentColor" p-id="2693"></path>
  <path
    d="M704.576 718.656c0 15.36-10.24 25.6-25.6 25.6H345.088c-10.24 0-20.48-5.12-23.104-15.36a23.488 23.488 0 0 1 5.12-28.16L496.448 518.4 327.232 325.888c-7.68-7.68-7.68-20.48-5.12-30.784 5.12-10.24 12.864-15.36 23.168-15.36h331.072c12.8 0 25.6 12.8 25.6 25.6v66.752c0 15.36-10.24 25.6-25.6 25.6-12.864 2.624-23.168-10.24-23.168-25.6v-38.528h-248.96L550.528 497.92c10.24 10.24 10.24 25.6 0 35.84l-143.68 156.736h246.4v-23.168c0-15.36 10.304-25.6 25.664-25.6 12.864 0 25.6 12.8 25.6 25.6v51.392z"
    fill="currentColor" p-id="2694"></path>
</svg>
